<?xml version="1.0" encoding="UTF-8"?>
<svg width="24px" height="24px" viewBox="0 0 24 24" version="1.1" xmlns="http://www.w3.org/2000/svg" xmlns:xlink="http://www.w3.org/1999/xlink">
    <!-- Generator: Sketch 59.1 (86144) - https://sketch.com -->
    <title>light / 360</title>
    <desc>Created with Sketch.</desc>
    <defs>
        <path d="M10,6 C12.5566667,6 14.975,6.5 16.8116667,7.42333333 C18.8683333,8.45166667 20,9.9 20,11.5 C20,13.1 18.8683333,14.5483333 16.8116667,15.5766667 C15.4633333,16.25 13.8,16.7016667 12,16.8933333 L12,16.8933333 L12,20 L8,16 L12,12 L12,14.8816667 C15.6166667,14.4533333 18,12.91 18,11.5 C18,9.845 14.715,8 10,8 C5.285,8 2,9.845 2,11.5 C2,12.6233333 3.53,13.8333333 6,14.5 L6,14.5 L6,16.56 C5.02751002,16.3434377 4.08382258,16.0133988 3.18833333,15.5766667 C1.13333333,14.5483333 0,13.1 0,11.5 C0,9.9 1.13333333,8.45166667 3.18833333,7.42333333 C5.025,6.5 7.44333333,6 10,6 Z M6.47833333,1.77635684e-15 C7.24,1.77635684e-15 7.87666667,0.313333333 7.87666667,1.14666667 C7.89933908,1.4736916 7.71854007,1.7809837 7.42166667,1.92 C7.78834329,2.05163742 8.02900425,2.40388977 8.01833333,2.79333333 C8.01833333,3.5 7.52833333,4 6.44333333,4 C5.43333333,4 5,3.54 4.93333333,2.79666667 L4.93333333,2.79666667 L5.645,2.72166667 C5.695,3.18166667 5.90833333,3.34833333 6.44333333,3.34833333 C7.03,3.35333333 7.31666667,3.18666667 7.31666667,2.79166667 C7.31666667,2.29166667 6.96666667,2.27166667 6.55833333,2.27166667 L6.55833333,2.27166667 L5.98833333,2.27166667 L5.98833333,1.625 L6.55833333,1.625 C6.92666667,1.625 7.175,1.605 7.175,1.145 C7.175,0.771666667 6.87166667,0.645 6.47833333,0.655 C5.95666667,0.655 5.755,0.796666667 5.705,1.26166667 L5.705,1.26166667 L4.99833333,1.18666667 C5.05833333,0.44 5.47833333,1.77635684e-15 6.47833333,1.77635684e-15 Z M10.1916667,0 C11,0 11.43,0.425 11.49,1 L11.49,1 L10.7816667,1.09 C10.7316667,0.766666667 10.5133333,0.645 10.135,0.645 C9.33333333,0.645 9.23666667,1.39333333 9.22166667,1.72666667 C9.40333333,1.445 9.80833333,1.31833333 10.1566667,1.31833333 C11.02,1.31833333 11.505,1.78833333 11.505,2.66666667 C11.505,3.545 10.9033333,4 10.07,4 C8.99,4 8.52,3.33333333 8.525,1.985 C8.525,0.676666667 9.12166667,0 10.1916667,0 Z M13.5616667,0 C14.6366667,0 15.0616667,0.666666667 15.0616667,2 C15.0616667,3.33333333 14.6466667,4 13.5616667,4 C12.48,4 12.0616667,3.33333333 12.0616667,2 C12.0616667,0.666666667 12.4866667,0 13.5616667,0 Z M10.094,1.96 L9.99261905,1.96198919 C9.5509949,1.99293367 9.23583333,2.31119048 9.29,2.80333333 C9.38666667,3.20166667 9.64833333,3.37333333 10.0533333,3.36833333 C10.4583333,3.36333333 10.7916667,3.16666667 10.7916667,2.66666667 C10.7916667,2.16666667 10.51,1.96 10.095,1.96 L10.094,1.96 Z M13.5616667,0.646666667 C12.99,0.646666667 12.7633333,1.03 12.7633333,2 C12.7633333,2.97 12.99,3.35333333 13.5616667,3.35333333 C14.1333333,3.35333333 14.36,2.97 14.36,2 C14.36,1.03 14.1316667,0.646666667 13.5616667,0.646666667 Z M17,0 C17.5522847,0 18,0.44771525 18,1 C18,1.55228475 17.5522847,2 17,2 C16.4477153,2 16,1.55228475 16,1 C16,0.44771525 16.4477153,0 17,0 Z" id="path-1"></path>
    </defs>
    <g id="light-/-360" stroke="none" stroke-width="1" fill="none" fill-rule="evenodd">
        <rect id="Rectangle-path" fill="#FFFFFF" fill-rule="nonzero" opacity="0" x="2" y="2" width="20" height="20"></rect>
        <g id="360" transform="translate(2.000000, 2.000000)">
            <mask id="mask-2" fill="white">
                <use xlink:href="#path-1"></use>
            </mask>
            <use id="Mask" fill="#FFFFFF" xlink:href="#path-1"></use>
        </g>
    </g>
</svg>