<?xml version="1.0" encoding="UTF-8"?>
<svg width="24px" height="24px" viewBox="0 0 24 24" version="1.1" xmlns="http://www.w3.org/2000/svg" xmlns:xlink="http://www.w3.org/1999/xlink">
    <!-- Generator: Sketch 59.1 (86144) - https://sketch.com -->
    <title>light / Account</title>
    <desc>Created with Sketch.</desc>
    <defs>
        <path d="M20,14 L20,20 L18,20 L18,16 L2,16 L2,20 L0,20 L0,14 L20,14 Z M10,18 C10.5522847,18 11,18.4477153 11,19 C11,19.5522847 10.5522847,20 10,20 C9.44771525,20 9,19.5522847 9,19 C9,18.4477153 9.44771525,18 10,18 Z M10,0 C13.3137085,0 16,2.6862915 16,6 C16,9.3137085 13.3137085,12 10,12 C6.6862915,12 4,9.3137085 4,6 C4,2.6862915 6.6862915,0 10,0 Z M10,2 C7.790861,2 6,3.790861 6,6 C6,8.209139 7.790861,10 10,10 C12.209139,10 14,8.209139 14,6 C14,3.790861 12.209139,2 10,2 Z" id="path-1"></path>
    </defs>
    <g id="light-/-Account" stroke="none" stroke-width="1" fill="none" fill-rule="evenodd">
        <rect id="Rectangle-path" fill="#FFFFFF" fill-rule="nonzero" opacity="0" x="2" y="2" width="20" height="20"></rect>
        <g id="Account" transform="translate(2.000000, 2.000000)">
            <mask id="mask-2" fill="white">
                <use xlink:href="#path-1"></use>
            </mask>
            <use id="Mask" fill="#FFFFFF" xlink:href="#path-1"></use>
        </g>
    </g>
</svg>