<?xml version="1.0" encoding="UTF-8"?>
<svg width="24px" height="24px" viewBox="0 0 24 24" version="1.1" xmlns="http://www.w3.org/2000/svg" xmlns:xlink="http://www.w3.org/1999/xlink">
    <!-- Generator: Sketch 59.1 (86144) - https://sketch.com -->
    <title>light / ArrowRefresh</title>
    <desc>Created with Sketch.</desc>
    <defs>
        <path d="M8,12 L8,14 L3.075,14 C4.50349001,16.4742178 7.14301975,17.9988559 10,18 C13.6464381,17.9950355 16.8299415,15.5293272 17.7466667,12 L17.7466667,12 L19.7983333,12 C19.008228,15.855716 16.0299062,18.889387 12.1893906,19.7503472 C8.34887502,20.6113074 4.36050422,19.1394178 2,15.99 L2,15.99 L2,20 L0,20 L0,12 L8,12 Z M20,0 L20,8 L12,8 L12,6 L16.92,6 C15.2936593,3.19149671 12.1317227,1.64382529 8.91607432,2.0823228 C5.70042593,2.52082031 3.06832193,4.85858818 2.25333333,8 L2.25333333,8 L0.201666667,8 C0.991771954,4.14428398 3.97009384,1.11061301 7.81060941,0.249652779 C11.651125,-0.611307449 15.6394958,0.860582249 18,4.01 L18,4.01 L18,0 L20,0 Z" id="path-1"></path>
    </defs>
    <g id="light-/-ArrowRefresh" stroke="none" stroke-width="1" fill="none" fill-rule="evenodd">
        <g id="ArrowRefresh" transform="translate(2.000000, 2.000000)">
            <rect id="Rectangle-path" fill="#FFFFFF" fill-rule="nonzero" opacity="0" x="0" y="0" width="20" height="20"></rect>
            <mask id="mask-2" fill="white">
                <use xlink:href="#path-1"></use>
            </mask>
            <use id="Mask" fill="#FFFFFF" xlink:href="#path-1"></use>
        </g>
    </g>
</svg>