<?xml version="1.0" encoding="UTF-8"?>
<svg width="24px" height="24px" viewBox="0 0 24 24" version="1.1" xmlns="http://www.w3.org/2000/svg" xmlns:xlink="http://www.w3.org/1999/xlink">
    <!-- Generator: Sketch 59.1 (86144) - https://sketch.com -->
    <title>light / Calendar</title>
    <desc>Created with Sketch.</desc>
    <defs>
        <path d="M7,0 L7,2 L13,2 L13,0 L15,0 L15,2 L20,2 L20,20 L0,20 L0,2 L5,2 L5,0 L7,0 Z M5,4 L2,4 L2,18 L18,18 L18,4 L15,4 L15,6 L13,6 L13,4 L7,4 L7,6 L5,6 L5,4 Z M7,13 L7,15 L5,15 L5,13 L7,13 Z M11,13 L11,15 L9,15 L9,13 L11,13 Z M7,9 L7,11 L5,11 L5,9 L7,9 Z M11,9 L11,11 L9,11 L9,9 L11,9 Z M15,9 L15,11 L13,11 L13,9 L15,9 Z" id="path-1"></path>
    </defs>
    <g id="light-/-Calendar" stroke="none" stroke-width="1" fill="none" fill-rule="evenodd">
        <g id="Calendar" transform="translate(2.000000, 2.000000)">
            <rect id="Rectangle-path" fill="#FFFFFF" fill-rule="nonzero" opacity="0" x="0" y="0" width="20" height="20"></rect>
            <mask id="mask-2" fill="white">
                <use xlink:href="#path-1"></use>
            </mask>
            <use id="Mask" fill="#FFFFFF" xlink:href="#path-1"></use>
        </g>
    </g>
</svg>