<?xml version="1.0" encoding="UTF-8"?>
<svg width="24px" height="24px" viewBox="0 0 24 24" version="1.1" xmlns="http://www.w3.org/2000/svg" xmlns:xlink="http://www.w3.org/1999/xlink">
    <!-- Generator: Sketch 59.1 (86144) - https://sketch.com -->
    <title>light / Clipboard</title>
    <desc>Created with Sketch.</desc>
    <defs>
        <path d="M14,2 L14,0 L6,0 L6,2 L2,2 L2,20 L18,20 L18,2 L14,2 Z M6,4 L6,6 L14,6 L14,4 L16,4 L16,18 L4,18 L4,4 L6,4 Z M12,13.3333333 L6,13.3333333 L6,15.3333333 L12,15.3333333 L12,13.3333333 Z M14,9 L6,9 L6,11 L14,11 L14,9 Z M12,2 L12,4 L8,4 L8,2 L12,2 Z" id="path-1"></path>
    </defs>
    <g id="light-/-Clipboard" stroke="none" stroke-width="1" fill="none" fill-rule="evenodd">
        <g id="Clipboard" transform="translate(2.000000, 2.000000)">
            <rect id="Rectangle-path" fill="#FFFFFF" fill-rule="nonzero" opacity="0" x="0" y="0" width="20" height="20"></rect>
            <mask id="mask-2" fill="white">
                <use xlink:href="#path-1"></use>
            </mask>
            <use id="Mask" fill="#FFFFFF" xlink:href="#path-1"></use>
        </g>
    </g>
</svg>