<?xml version="1.0" encoding="UTF-8"?>
<svg width="24px" height="24px" viewBox="0 0 24 24" version="1.1" xmlns="http://www.w3.org/2000/svg" xmlns:xlink="http://www.w3.org/1999/xlink">
    <!-- Generator: Sketch 59.1 (86144) - https://sketch.com -->
    <title>light / Cog</title>
    <desc>Created with Sketch.</desc>
    <defs>
        <path d="M20,11 L20,9 L17.935,9 C17.8456683,8.27652638 17.6572353,7.56878083 17.375,6.89666667 L19.1666667,5.86666667 L18.1666667,4.13333333 L16.3733333,5.16666667 C15.9321773,4.58590207 15.4140979,4.06782266 14.8333333,3.62666667 L15.8666667,1.83333333 L14.1333333,0.833333333 L13.1033333,2.625 C12.431226,2.34274465 11.7234777,2.15431086 11,2.065 L11,0 L9,0 L9,2.065 C8.27652235,2.15431086 7.56877399,2.34274465 6.89666667,2.625 L5.86666667,0.833333333 L4.13333333,1.83333333 L5.16666667,3.62666667 C4.58590207,4.06782266 4.06782266,4.58590207 3.62666667,5.16666667 L1.83333333,4.13333333 L0.833333333,5.86666667 L2.61833333,6.89666667 C2.33838466,7.56911186 2.15219762,8.27684692 2.065,9 L0,9 L0,11 L2.065,11 C2.15433165,11.7234736 2.3427647,12.4312192 2.625,13.1033333 L0.833333333,14.1333333 L1.83333333,15.8666667 L3.62666667,14.8333333 C4.06782266,15.4140979 4.58590207,15.9321773 5.16666667,16.3733333 L4.13333333,18.1666667 L5.865,19.1666667 L6.895,17.3816667 C7.56796742,17.6617826 8.27627601,17.847973 9,17.935 L9,20 L11,20 L11,17.935 C11.7234777,17.8456891 12.431226,17.6572553 13.1033333,17.375 L14.1333333,19.1666667 L15.865,18.1666667 L14.8333333,16.3733333 C15.4140979,15.9321773 15.9321773,15.4140979 16.3733333,14.8333333 L18.1666667,15.8666667 L19.1666667,14.135 L17.3816667,13.105 C17.6617626,12.4320258 17.8479522,11.72372 17.935,11 L20,11 Z M10,4 C11.5912989,4 13.1174224,4.63214104 14.2426407,5.75735931 C15.367859,6.88257758 16,8.40870106 16,10 C16,13.3137085 13.3137085,16 10,16 C6.6862915,16 4,13.3137085 4,10 C4,6.6862915 6.6862915,4 10,4 Z M10,9 C9.44771525,9 9,9.44771525 9,10 C9,10.5522847 9.44771525,11 10,11 C10.5522847,11 11,10.5522847 11,10 C11,9.44771525 10.5522847,9 10,9 Z" id="path-1"></path>
    </defs>
    <g id="light-/-Cog" stroke="none" stroke-width="1" fill="none" fill-rule="evenodd">
        <g id="Cog" transform="translate(2.000000, 2.000000)">
            <rect id="Rectangle-path" fill="#FFFFFF" fill-rule="nonzero" opacity="0" x="0" y="0" width="20" height="20"></rect>
            <mask id="mask-2" fill="white">
                <use xlink:href="#path-1"></use>
            </mask>
            <use id="Mask" fill="#FFFFFF" xlink:href="#path-1"></use>
        </g>
    </g>
</svg>