<?xml version="1.0" encoding="UTF-8"?>
<svg width="24px" height="24px" viewBox="0 0 24 24" version="1.1" xmlns="http://www.w3.org/2000/svg" xmlns:xlink="http://www.w3.org/1999/xlink">
    <!-- Generator: Sketch 59.1 (86144) - https://sketch.com -->
    <title>light / CreditcardScan</title>
    <desc>Created with Sketch.</desc>
    <defs>
        <path d="M3,7 L3,13 C3,14.1045695 3.8954305,15 5,15 L15,15 C16.1045695,15 17,14.1045695 17,13 L17,7 C17,5.8954305 16.1045695,5 15,5 L5,5 C3.8954305,5 3,5.8954305 3,7 Z M15,13 L5,13 L5,13 L5,13 L5,11 L15,11 L15,13 C15,13 15,13 15,13 Z M20,16 L20,20 L14,20 L14,18 L18,18 L18,16 L20,16 Z M2,16 L2,18 L6,18 L6,20 L0,20 L0,16 L2,16 Z M15,7 L15,9 L5,9 L5,7 L15,7 Z M6,0 L6,2 L2,2 L2,4 L0,4 L0,0 L6,0 Z M20,0 L20,4 L18,4 L18,2 L14,2 L14,0 L20,0 Z" id="path-1"></path>
    </defs>
    <g id="light-/-CreditcardScan" stroke="none" stroke-width="1" fill="none" fill-rule="evenodd">
        <g id="CreditcardScan" transform="translate(2.000000, 2.000000)">
            <rect id="Rectangle-path" fill="#FFFFFF" fill-rule="nonzero" opacity="0" x="0" y="0" width="20" height="20"></rect>
            <mask id="mask-2" fill="white">
                <use xlink:href="#path-1"></use>
            </mask>
            <use id="Mask" fill="#FFFFFF" xlink:href="#path-1"></use>
        </g>
    </g>
</svg>