<?xml version="1.0" encoding="UTF-8"?>
<svg width="24px" height="24px" viewBox="0 0 24 24" version="1.1" xmlns="http://www.w3.org/2000/svg" xmlns:xlink="http://www.w3.org/1999/xlink">
    <!-- Generator: Sketch 59.1 (86144) - https://sketch.com -->
    <title>light / CVV</title>
    <desc>Created with Sketch.</desc>
    <defs>
        <path d="M8.75465464,10.0922401 C10.0816844,7.70280596 12.8558754,6.51219094 15.502048,7.19642376 C18.1482205,7.88065657 19.9975537,10.2667972 20.0000037,13 C20.001778,14.6054615 19.3579307,16.1442085 18.2133333,17.27 L18.2133333,17.27 L20.0000037,19.0566667 L19.0566667,20 L17.1666667,18.1016667 C14.8451304,19.5441899 11.84207,19.235437 9.8626168,17.3507172 C7.88316357,15.4659974 7.42762488,12.4816743 8.75465464,10.0922401 Z M16,2 C17.1045695,2 18,2.8954305 18,4 L18,4 L18,6.07166667 C17.3737933,5.70851591 16.7009032,5.43263094 16,5.25166667 L16,5.25166667 L16,4 L2,4 L2,4 L2,8 L7.75,8 C7.2660655,8.60648381 6.87305096,9.28022301 6.58333333,10 L6.58333333,10 L2,10 L2,16 L6.59,16 C6.87971763,16.719777 7.27273217,17.3935162 7.75666667,18 L7.75666667,18 L2,18 C0.8954305,18 0,17.1045695 0,16 L0,16 L0,4 C0,2.8954305 0.8954305,2 2,2 L2,2 Z M14,8.33333333 C11.4226712,8.33333333 9.33333333,10.4226712 9.33333333,13 C9.33333333,14.237677 9.82499859,15.4246619 10.7001684,16.2998316 C11.5753381,17.1750014 12.762323,17.6666667 14,17.6666667 C16.5773288,17.6666667 18.6666667,15.5773288 18.6666667,13 C18.6666667,10.4226712 16.5773288,8.33333333 14,8.33333333 Z M6.065,12 C5.97908323,12.6638985 5.97908323,13.3361015 6.065,14 L6.065,14 L4,14 L4,12 Z M16,12.3333333 C16.3681898,12.3333333 16.6666667,12.6318102 16.6666667,13 C16.6666667,13.3681898 16.3681898,13.6666667 16,13.6666667 C15.6318102,13.6666667 15.3333333,13.3681898 15.3333333,13 C15.3333333,12.6318102 15.6318102,12.3333333 16,12.3333333 Z M14,12.3333333 C14.3681898,12.3333333 14.6666667,12.6318102 14.6666667,13 C14.6666667,13.3681898 14.3681898,13.6666667 14,13.6666667 C13.6318102,13.6666667 13.3333333,13.3681898 13.3333333,13 C13.3333333,12.6318102 13.6318102,12.3333333 14,12.3333333 Z M12,12.3333333 C12.3681898,12.3333333 12.6666667,12.6318102 12.6666667,13 C12.6666667,13.3681898 12.3681898,13.6666667 12,13.6666667 C11.6318102,13.6666667 11.3333333,13.3681898 11.3333333,13 C11.3333333,12.6318102 11.6318102,12.3333333 12,12.3333333 Z" id="path-1"></path>
    </defs>
    <g id="light-/-CVV" stroke="none" stroke-width="1" fill="none" fill-rule="evenodd">
        <g id="CVV" transform="translate(2.000000, 2.000000)">
            <rect id="Rectangle-path" fill="#FFFFFF" fill-rule="nonzero" opacity="0" x="0" y="0" width="20" height="20"></rect>
            <mask id="mask-2" fill="white">
                <use xlink:href="#path-1"></use>
            </mask>
            <use id="Mask" fill="#FFFFFF" xlink:href="#path-1"></use>
        </g>
    </g>
</svg>