<?xml version="1.0" encoding="UTF-8"?>
<svg width="24px" height="24px" viewBox="0 0 24 24" version="1.1" xmlns="http://www.w3.org/2000/svg" xmlns:xlink="http://www.w3.org/1999/xlink">
    <!-- Generator: Sketch 59.1 (86144) - https://sketch.com -->
    <title>light / Dashboard</title>
    <desc>Created with Sketch.</desc>
    <defs>
        <path d="M10.0002933,1 C13.7878809,1 17.2503906,3.14002376 18.9442513,6.52786405 C20.638112,9.91570433 20.2725652,13.9698235 18.0000126,17 C17.4308956,17.7575409 16.7575971,18.4308631 16.0000827,19 L16.0000827,19 L4.00050378,19 C0.557181333,16.4174176 -0.847299565,11.9211437 0.51379314,7.83772234 C1.87488584,3.75430095 5.6961402,1 10.0002933,1 Z M10.0002933,2.99280524 C6.67126171,2.99280524 3.69018992,5.05453694 2.51531848,8.16947016 C1.34044704,11.2844034 2.21737769,14.8013749 4.7171453,17 L4.7171453,17 L15.2834412,17 C17.7832088,14.8013749 18.6601395,11.2844034 17.485268,8.16947016 C16.3103966,5.05453694 13.3293248,2.99280524 10.0002933,2.99280524 Z M13.5,10 L10.8646687,14.0416143 C10.6781387,14.2283877 10.4250251,14.3333333 10.1610849,14.3333333 C9.89714484,14.3333333 9.64403121,14.2283877 9.45750121,14.0416143 C9.06972182,13.6532778 9.06972182,13.024172 9.45750121,12.6358354 L9.45750121,12.6358354 L13.5,10 Z M10,5 C13.3137085,5 16,7.6862915 16,11 L16,11 L14,11 C14,8.790861 12.209139,7 10,7 C7.790861,7 6,8.790861 6,11 L6,11 L4,11 C4,7.6862915 6.6862915,5 10,5 Z" id="path-1"></path>
    </defs>
    <g id="light-/-Dashboard" stroke="none" stroke-width="1" fill="none" fill-rule="evenodd">
        <g id="Dashboard" transform="translate(2.000000, 2.000000)">
            <rect id="Rectangle-path" fill="#FFFFFF" fill-rule="nonzero" opacity="0" x="0" y="0" width="20" height="20"></rect>
            <mask id="mask-2" fill="white">
                <use xlink:href="#path-1"></use>
            </mask>
            <use id="Mask" fill="#FFFFFF" xlink:href="#path-1"></use>
        </g>
    </g>
</svg>