<?xml version="1.0" encoding="UTF-8"?>
<svg width="24px" height="24px" viewBox="0 0 24 24" version="1.1" xmlns="http://www.w3.org/2000/svg" xmlns:xlink="http://www.w3.org/1999/xlink">
    <!-- Generator: Sketch 59.1 (86144) - https://sketch.com -->
    <title>light / Fapiao</title>
    <desc>Created with Sketch.</desc>
    <defs>
        <path d="M19.8333333,12.4016667 L19.8333333,14.235 L11.1883333,14.235 L11.1883333,17.9883333 C11.1883333,18.7183333 11.0061111,19.225 10.6416667,19.5083333 C10.3083333,19.8361111 9.69722222,20 8.80833333,20 L8.80833333,20 L6.405,20 L5.99,17.99 C6.72151266,18.0968502 7.45915422,18.1564182 8.19833333,18.1683333 C8.78055556,18.1683333 9.07166667,17.9894444 9.07166667,17.6316667 L9.07166667,17.6316667 L9.07166667,14.235 L0.261666667,14.235 L0.261666667,12.4016667 L19.8333333,12.4016667 Z M5.13666667,14.6666667 L6.33833333,16.245 C5.46388889,17.1238889 4.69888889,17.7572222 4.04333333,18.145 C3.11059881,18.699761 2.13067869,19.1710373 1.115,19.5533333 L1.115,19.5533333 L7.99360578e-15,17.5416667 C1.04689037,17.2421522 2.05832471,16.830314 3.01666667,16.3133333 C3.79345246,15.8612168 4.50641464,15.307438 5.13666667,14.6666667 L5.13666667,14.6666667 Z M14.2733333,14.9266667 C16.2614914,15.6131035 18.1791735,16.4887854 20,17.5416667 L20,17.5416667 L18.7983333,19.4633333 C17.0738932,18.2767406 15.2091481,17.30826 13.2466667,16.58 L13.2466667,16.58 Z M18.7116667,9.43 L18.7116667,11.1733333 L1.29,11.1733333 L1.29,9.43 L18.7116667,9.43 Z M19.475,-2.89546165e-13 L19.475,1.92166667 L13.595,1.92166667 L13.595,3.33333333 L18.7983333,3.33333333 L18.7983333,8.20166667 L1.29,8.20166667 L1.29,3.33333333 L6.405,3.33333333 L6.405,1.92166667 L0.525,1.92166667 L0.525,-2.89546165e-13 L19.475,-2.89546165e-13 Z M6.405,4.89333333 L3.25666667,4.89333333 L3.25666667,6.64 L6.405,6.64 L6.405,4.89333333 Z M16.8333333,4.89333333 L13.595,4.89333333 L13.595,6.63666667 L16.8333333,6.63666667 L16.8333333,4.89333333 Z M11.6283333,4.89333333 L8.37166667,4.89333333 L8.37166667,6.63666667 L11.6283333,6.63666667 L11.6283333,4.89333333 Z M11.6283333,1.92166667 L8.37166667,1.92166667 L8.37166667,3.33333333 L11.6283333,3.33333333 L11.6283333,1.92166667 Z" id="path-1"></path>
    </defs>
    <g id="light-/-Fapiao" stroke="none" stroke-width="1" fill="none" fill-rule="evenodd">
        <g id="Fapiao" transform="translate(2.000000, 2.000000)">
            <rect id="Rectangle-path" fill="#FFFFFF" fill-rule="nonzero" opacity="0" x="0" y="0" width="20" height="20"></rect>
            <mask id="mask-2" fill="white">
                <use xlink:href="#path-1"></use>
            </mask>
            <use id="Mask" fill="#FFFFFF" xlink:href="#path-1"></use>
        </g>
    </g>
</svg>