<?xml version="1.0" encoding="UTF-8"?>
<svg width="24px" height="24px" viewBox="0 0 24 24" version="1.1" xmlns="http://www.w3.org/2000/svg" xmlns:xlink="http://www.w3.org/1999/xlink">
    <!-- Generator: Sketch 59.1 (86144) - https://sketch.com -->
    <title>light / Lock</title>
    <desc>Created with Sketch.</desc>
    <defs>
        <path d="M15,8 L15,5 C15,2.23857625 12.7614237,0 10,0 C7.23857625,0 5,2.23857625 5,5 L5,8 L2,8 L2,20 L18,20 L18,8 L15,8 Z M16,10 L16,18 L4,18 L4,10 L16,10 Z M10,13 C9.44771525,13 9,13.4477153 9,14 C9,14.5522847 9.44771525,15 10,15 C10.5522847,15 11,14.5522847 11,14 C11,13.4477153 10.5522847,13 10,13 Z M10,2 C11.6568542,2 13,3.34314575 13,5 L13,8 L7,8 L7,5 C7,3.34314575 8.34314575,2 10,2 Z" id="path-1"></path>
    </defs>
    <g id="light-/-Lock" stroke="none" stroke-width="1" fill="none" fill-rule="evenodd">
        <g id="lock" transform="translate(2.000000, 2.000000)">
            <rect id="Rectangle-path" fill="#FFFFFF" fill-rule="nonzero" opacity="0" x="0" y="0" width="20" height="20"></rect>
            <mask id="mask-2" fill="white">
                <use xlink:href="#path-1"></use>
            </mask>
            <use id="Mask" fill="#FFFFFF" xlink:href="#path-1"></use>
        </g>
    </g>
</svg>