<?xml version="1.0" encoding="UTF-8"?>
<svg width="24px" height="24px" viewBox="0 0 24 24" version="1.1" xmlns="http://www.w3.org/2000/svg" xmlns:xlink="http://www.w3.org/1999/xlink">
    <!-- Generator: Sketch 59.1 (86144) - https://sketch.com -->
    <title>light / Men</title>
    <desc>Created with Sketch.</desc>
    <defs>
        <path d="M12,0 C12,1.1045695 11.1045695,2 10,2 C8.8954305,2 8,1.1045695 8,0 L0,2 L0,10 L3,10 L3,20 L17,20 L17,10 L20,10 L20,2 L12,0 Z M18,8 L15,8 L15,18 L5,18 L5,8 L2,8 L2,3.56166667 L6.77666667,2.36666667 C7.53042009,3.39167702 8.7268497,3.99696336 9.99916667,3.99696336 C11.2714836,3.99696336 12.4679132,3.39167702 13.2216667,2.36666667 L18,3.56166667 L18,8 Z" id="path-1"></path>
    </defs>
    <g id="light-/-Men" stroke="none" stroke-width="1" fill="none" fill-rule="evenodd">
        <g id="Men" transform="translate(2.000000, 2.000000)">
            <rect id="Rectangle-path" fill="#FFFFFF" fill-rule="nonzero" opacity="0" x="0" y="0" width="20" height="20"></rect>
            <mask id="mask-2" fill="white">
                <use xlink:href="#path-1"></use>
            </mask>
            <use id="Mask" fill="#FFFFFF" xlink:href="#path-1"></use>
        </g>
    </g>
</svg>