<?xml version="1.0" encoding="UTF-8"?>
<svg width="24px" height="24px" viewBox="0 0 24 24" version="1.1" xmlns="http://www.w3.org/2000/svg" xmlns:xlink="http://www.w3.org/1999/xlink">
    <!-- Generator: Sketch 59.1 (86144) - https://sketch.com -->
    <title>light / ProcessCheck</title>
    <desc>Created with Sketch.</desc>
    <defs>
        <path d="M1.21833333,5.22 L2.71,6.71 C1.59320021,9.18535108 1.80838375,12.0582271 3.28146998,14.3395911 C4.75455621,16.6209551 7.28437776,17.9992598 10,18 C11.1342086,18.0006126 12.2554189,17.7585266 13.2883333,17.29 L13.2883333,17.29 L14.78,18.7816667 C10.887223,20.8976689 6.06615136,20.1998168 2.93316726,17.0668327 C-0.199816844,13.9338486 -0.897668946,9.11277705 1.21833333,5.22 L1.21833333,5.22 Z M10,-5.8620051e-06 C13.5274967,0.000949233824 16.7935546,1.86032641 18.5949919,4.89315631 C20.3964293,7.9259862 20.4667315,11.6835752 18.78,14.7816667 L18.78,14.7816667 L17.2883333,13.29 C18.6523142,10.2590201 18.0000943,6.70039143 15.6498514,4.35014856 C13.2996086,1.99990569 9.74097994,1.34768584 6.71,2.71166667 L6.71,2.71166667 L5.21833333,1.22 C6.68430275,0.417787087 8.32889001,-0.00181482184 10,-5.8620051e-06 Z M12.1216667,7.17166667 L13.535,8.58666667 L9.29333333,12.8283333 L6.465,10 L7.87833333,8.58666667 L9.29333333,10 L12.1216667,7.17166667 Z" id="path-1"></path>
    </defs>
    <g id="light-/-ProcessCheck" stroke="none" stroke-width="1" fill="none" fill-rule="evenodd">
        <g id="ProcessCheck" transform="translate(2.000000, 2.000000)">
            <rect id="Rectangle-path" fill="#FFFFFF" fill-rule="nonzero" opacity="0" x="0" y="0" width="20" height="20"></rect>
            <mask id="mask-2" fill="white">
                <use xlink:href="#path-1"></use>
            </mask>
            <use id="Mask" fill="#FFFFFF" xlink:href="#path-1"></use>
        </g>
    </g>
</svg>