<?xml version="1.0" encoding="UTF-8"?>
<svg width="24px" height="24px" viewBox="0 0 24 24" version="1.1" xmlns="http://www.w3.org/2000/svg" xmlns:xlink="http://www.w3.org/1999/xlink">
    <!-- Generator: Sketch 59.1 (86144) - https://sketch.com -->
    <title>light / SpeechCheck</title>
    <desc>Created with Sketch.</desc>
    <defs>
        <path d="M20,0 L20,16 L9.65666667,16 C8.80912363,18.3972137 6.54262912,20 4,20 L4,20 L4,18 C6.209139,18 8,16.209139 8,14 L8,14 L18,14 L18,2 L2,2 L2,14 L4,14 L4,16 L0,16 L0,0 L20,0 Z M12.1216667,5.17666667 L13.535,6.59 L9.29333333,10.8333333 L6.465,8.005 L7.87833333,6.59 L9.29333333,8.005 L12.1216667,5.17666667 Z" id="path-1"></path>
    </defs>
    <g id="light-/-SpeechCheck" stroke="none" stroke-width="1" fill="none" fill-rule="evenodd">
        <g id="SpeechCheck" transform="translate(2.000000, 2.000000)">
            <rect id="Rectangle-path" fill="#FFFFFF" fill-rule="nonzero" opacity="0" x="0" y="0" width="20" height="20"></rect>
            <mask id="mask-2" fill="white">
                <use xlink:href="#path-1"></use>
            </mask>
            <use id="Mask" fill="#FFFFFF" xlink:href="#path-1"></use>
        </g>
    </g>
</svg>