<?xml version="1.0" encoding="UTF-8"?>
<svg width="24px" height="24px" viewBox="0 0 24 24" version="1.1" xmlns="http://www.w3.org/2000/svg" xmlns:xlink="http://www.w3.org/1999/xlink">
    <!-- Generator: Sketch 59.1 (86144) - https://sketch.com -->
    <title>light / StarShine</title>
    <desc>Created with Sketch.</desc>
    <defs>
        <path d="M12.8566667,7.14333333 L10,0 L7.14333333,7.14333333 L0,10 L7.14333333,12.8566667 L10,20 L12.8566667,12.8566667 L20,10 L12.8566667,7.14333333 Z M17.4142136,16 L19.9998674,18.5856538 L18.5856538,19.9998674 L16,17.4142136 L17.4142136,16 Z M2.5856538,16 L3.99986736,17.4142136 L1.41421356,19.9998674 L1.05471187e-14,18.5856538 L2.5856538,16 Z M10,5.385 L11.3183333,8.68166667 L14.615,10 L11.3183333,11.3183333 L10,14.615 L8.68166667,11.3183333 L5.385,10 L8.68166667,8.68166667 L10,5.385 Z M1.41421356,-1.86961557e-13 L3.99986736,2.5856538 L2.5856538,3.99986736 L-2.44249065e-15,1.41421356 L1.41421356,-1.86961557e-13 Z M18.5856538,-6.00408612e-13 L19.9998674,1.41421356 L17.4142136,3.99986736 L16,2.5856538 L18.5856538,-6.00408612e-13 Z" id="path-1"></path>
    </defs>
    <g id="light-/-StarShine" stroke="none" stroke-width="1" fill="none" fill-rule="evenodd">
        <g id="StarShine" transform="translate(2.000000, 2.000000)">
            <rect id="Rectangle-path" fill="#222222" fill-rule="nonzero" opacity="0" x="0" y="0" width="20" height="20"></rect>
            <mask id="mask-2" fill="white">
                <use xlink:href="#path-1"></use>
            </mask>
            <use id="Mask" fill="#FFFFFF" xlink:href="#path-1"></use>
        </g>
    </g>
</svg>