<?xml version="1.0" encoding="UTF-8"?>
<svg width="24px" height="24px" viewBox="0 0 24 24" version="1.1" xmlns="http://www.w3.org/2000/svg" xmlns:xlink="http://www.w3.org/1999/xlink">
    <!-- Generator: Sketch 59.1 (86144) - https://sketch.com -->
    <title>light / ZoomIn</title>
    <desc>Created with Sketch.</desc>
    <defs>
        <path d="M6.34869028,0.399995766 C10.1237355,-0.76353075 14.2163692,0.670211559 16.4395121,3.93503931 C18.662655,7.19986707 18.4965654,11.5325061 16.0300005,14.6176198 L16.0300005,14.6176198 L20,18.5852505 L18.5850005,20 L14.6166671,16.0307029 C11.9147516,18.188333 8.21535721,18.607419 5.09910795,17.1089 C1.98285868,15.6103809 0.000878937885,12.4592774 0,9.00194751 C-0.00125540625,5.05230028 2.57364504,1.56352228 6.34869028,0.399995766 Z M9.00000046,2.00318683 C5.13400721,2.00318683 2.00000046,5.13663872 2.00000046,9.00194751 C2.00000046,12.8672563 5.13400721,16.0007082 9.00000046,16.0007082 C12.8659937,16.0007082 16.0000005,12.8672563 16.0000005,9.00194751 C16.0000005,5.13663872 12.8659937,2.00318683 9.00000046,2.00318683 Z M10,5 L10,8 L13,8 L13,10 L10,10 L10,13 L8,13 L8,10 L5,10 L5,8 L8,8 L8,5 L10,5 Z" id="path-1"></path>
    </defs>
    <g id="light-/-ZoomIn" stroke="none" stroke-width="1" fill="none" fill-rule="evenodd">
        <g id="ZoomIn" transform="translate(2.000000, 2.000000)">
            <rect id="Rectangle-path" fill="#FFFFFF" fill-rule="nonzero" opacity="0" transform="translate(10.000000, 10.000000) rotate(180.000000) translate(-10.000000, -10.000000) " x="-7.10542736e-15" y="0" width="20" height="20"></rect>
            <mask id="mask-2" fill="white">
                <use xlink:href="#path-1"></use>
            </mask>
            <use id="Mask" fill="#FFFFFF" xlink:href="#path-1"></use>
        </g>
    </g>
</svg>