<?xml version="1.0" encoding="UTF-8"?>
<svg width="24px" height="24px" viewBox="0 0 24 24" version="1.1" xmlns="http://www.w3.org/2000/svg" xmlns:xlink="http://www.w3.org/1999/xlink">
    <!-- Generator: Sketch 59.1 (86144) - https://sketch.com -->
    <title>light / home</title>
    <desc>Created with Sketch.</desc>
    <g id="light-/-home" stroke="none" stroke-width="1" fill="none" fill-rule="evenodd">
        <g id="light-/-bag" transform="translate(4.000000, 4.000000)" fill="#FFFFFF" fill-rule="nonzero">
            <path d="M6.31218855,3.13763492 C6.31218855,2.52658529 6.55758014,1.97244715 6.95375453,1.57107142 C7.34992892,1.16969569 7.8968861,0.921082358 8.50001726,0.921082358 C9.10388756,0.921082358 9.65084474,1.16969569 10.0470191,1.57107142 C10.4431935,1.97244715 10.6885851,2.52658529 10.6885851,3.13763492 L10.6885851,4.2459112 L10.6885851,5.35493631 L8.50001726,5.35493631 L6.31218855,5.35493631 L6.31218855,4.2459112 L6.31218855,3.13763492 Z M16.5454348,5.35490265 L11.5976957,5.35490265 L11.5976957,3.13760902 C11.5976957,2.70478372 11.5104783,2.29292573 11.3537826,1.91776055 C11.197087,1.54184653 10.9701739,1.20412298 10.6893043,0.920315391 C10.4091739,0.635758964 10.075087,0.405867324 9.70478261,0.247114792 C9.33447826,0.0876134261 8.92721739,0 8.5,0 C8.07352174,0 7.66626087,0.0876134261 7.29595652,0.247114792 C6.92565217,0.405867324 6.59156522,0.635758964 6.31143478,0.920315391 C6.03056522,1.20412298 5.80365217,1.54184653 5.64695652,1.91776055 C5.49026087,2.29292573 5.40304348,2.70478372 5.40304348,3.13760902 L5.40304348,5.35490265 L0.454565217,5.35490265 C0.39173913,5.35490265 0.332608696,5.36763281 0.277913043,5.39084662 C0.223956522,5.41406044 0.174434783,5.44775791 0.133782609,5.48969254 C0.0923913043,5.53087834 0.0591304348,5.5803013 0.0362173913,5.63571491 C0.0133043478,5.69112853 0,5.75178398 0,5.81543476 L0,15.9501366 C0,16.0130385 0.0133043478,16.0736939 0.0362173913,16.1291076 C0.0591304348,16.1845212 0.0923913043,16.2339441 0.133782609,16.2751299 C0.174434783,16.3170646 0.223956522,16.350762 0.277913043,16.3739759 C0.332608696,16.3971897 0.39173913,16.4106687 0.454565217,16.4106687 L4.47765217,17 L12.523087,17 L16.5454348,16.4106687 C16.6082609,16.4106687 16.6681304,16.3971897 16.7228261,16.3739759 C16.7767826,16.350762 16.8263043,16.3170646 16.8669565,16.2751299 C16.9083478,16.2339441 16.9416087,16.1845212 16.9645217,16.1291076 C16.9874348,16.0736939 17,16.0130385 17,15.9501366 L17,5.81543476 C17,5.75178398 16.9874348,5.69112853 16.9645217,5.63571491 C16.9416087,5.5803013 16.9083478,5.53087834 16.8669565,5.48969254 C16.8263043,5.44775791 16.7767826,5.41406044 16.7228261,5.39084662 C16.6681304,5.36763281 16.6082609,5.35490265 16.5454348,5.35490265 L16.5454348,5.35490265 Z" id="icn_bag"></path>
        </g>
    </g>
</svg>