<?xml version="1.0" encoding="UTF-8"?>
<svg width="24px" height="24px" viewBox="0 0 24 24" version="1.1" xmlns="http://www.w3.org/2000/svg" xmlns:xlink="http://www.w3.org/1999/xlink">
    <!-- Generator: Sketch 59.1 (86144) - https://sketch.com -->
    <title>old / light / Emai</title>
    <desc>Created with Sketch.</desc>
    <g id="old-/-light-/-Emai" stroke="none" stroke-width="1" fill="none" fill-rule="evenodd">
        <path d="M23,8 L23,18 C23,18.5 22.5,19 22,19 L22,19 L2,19 C1.5,19 1,18.5 1,18 L1,18 L1,8 L12,14 L23,8 Z M22,4 C22.5,4 23,4.5 23,5 L23,5 L23,6.34836458 C23,6.34836458 12,12 12.0026672,11.9999972 C12.0053344,11.9999945 1,6.33189308 1,6.33189308 L1,6.33189308 L1,5 C1,4.5 1.5,4 2,4 L2,4 Z" id="Combined-Shape" fill="#FFFFFF" fill-rule="nonzero"></path>
    </g>
</svg>