<?xml version="1.0" encoding="UTF-8"?>
<svg width="24px" height="24px" viewBox="0 0 24 24" version="1.1" xmlns="http://www.w3.org/2000/svg" xmlns:xlink="http://www.w3.org/1999/xlink">
    <!-- Generator: Sketch 59.1 (86144) - https://sketch.com -->
    <title>old / light / Phone</title>
    <desc>Created with Sketch.</desc>
    <g id="old-/-light-/-Phone" stroke="none" stroke-width="1" fill="none" fill-rule="evenodd">
        <path d="M21.4675715,17.3981183 C20.935143,16.7622637 17.2216911,15.5451078 16.8965097,15.5261077 L16.6351298,15.5451078 C16.1494159,15.6421084 15.6204817,16.0561107 14.6048045,16.9251156 C14.407226,17.0951166 14.1139454,17.1441169 13.8834371,17.0181162 C12.5405205,16.289112 10.8837421,14.8241038 10.0646144,13.9250987 C9.18374344,12.9590932 8.10323582,11.3970843 7.58356311,10.1150771 C7.48683195,9.87807575 7.57224351,9.60607421 7.76776393,9.43607324 C8.9429446,8.41906748 9.44203622,7.9280647 9.47496597,7.38906165 C9.49554707,7.07405987 9,3.53397298 8.11249732,2.75603542 C7.22499464,1.97809786 6.76546448,1.91503066 6.00602198,2.06503151 C5.82182116,2.10103171 5.64482372,2.17203211 5.47708778,2.27303268 C4.96667656,2.58403444 3.7204911,3.42503921 3.15348187,4.52304542 C2.80257415,5.2080493 2.6440997,11.4500846 7.45801842,16.7281145 C12.2153391,21.9441441 18.08301,22.1711454 18.963881,21.9961444 L19.0657574,21.9691442 C20.2553449,21.5551419 21.2648477,20.4531356 21.6435399,19.998133 C22.3432972,19.1571283 22,18.033973 21.4675715,17.3981183 Z" id="Ico_Phone-Copy" fill="#FFFFFF" fill-rule="nonzero"></path>
    </g>
</svg>