<?xml version="1.0" encoding="UTF-8"?>
<svg width="134px" height="18px" viewBox="0 0 134 18" version="1.1" xmlns="http://www.w3.org/2000/svg" xmlns:xlink="http://www.w3.org/1999/xlink">
    <!-- Generator: Sketch 59.1 (86144) - https://sketch.com -->
    <title>logo</title>
    <desc>Created with Sketch.</desc>
    <g id="Symbols" stroke="none" stroke-width="1" fill="none" fill-rule="evenodd">
        <g id="Logo-full-black" fill="#222222" fill-rule="nonzero">
            <g id="logo">
                <polyline id="Shape" points="123.107 0 123.107 17.869 126.688 17.869 126.688 10.728 130.246 10.728 130.246 17.869 133.827 17.869 133.827 0 130.246 0 130.246 7.145 126.688 7.145 126.688 0 123.107 0"></polyline>
                <polyline id="Shape" points="109.652 14.292 109.652 3.582 116.801 3.582 116.801 0 109.649 0 106.071 3.582 106.071 14.292 109.652 17.869 116.804 17.869 116.804 14.292 109.652 14.292"></polyline>
                <polyline id="Shape" points="99.447 0 88.727 0 88.714 3.582 92.289 3.582 92.289 17.869 95.872 17.869 95.872 3.582 99.447 3.582 99.447 0"></polyline>
                <polyline id="Shape" points="74.295 14.292 74.295 10.728 79.666 10.728 79.666 7.145 74.295 7.145 74.295 3.582 81.447 3.582 81.447 0 74.295 0 70.714 3.582 70.714 14.292 70.717 14.292 74.295 17.869 81.447 17.869 81.447 14.292 74.295 14.292"></polyline>
                <polyline id="Shape" points="57.581 3.582 64.732 3.582 64.732 0 57.581 0 54 3.582 54 17.869 57.581 17.869 57.581 10.728 62.952 10.728 62.952 7.145 57.581 7.145 57.581 3.582"></polyline>
                <polyline id="Shape" points="39.246 7.145 39.246 3.582 42.846 3.582 42.846 7.145 46.424 7.145 46.424 3.582 42.846 0 35.679 0 35.679 17.869 39.246 17.869 39.246 10.728 42.846 10.728 42.846 17.869 46.424 17.869 46.424 10.728 42.846 7.145 39.246 7.145"></polyline>
                <path d="M20.616,3.582 L24.175,3.582 L24.175,7.145 L20.616,7.145 L20.616,3.582 Z M24.175,0 L20.616,0 L17.036,3.582 L17.036,17.869 L20.616,17.869 L20.616,10.728 L24.175,10.728 L24.175,17.869 L27.755,17.869 L27.755,3.582 L24.175,0 Z" id="Shape"></path>
                <polyline id="Shape" points="3.581 3.582 10.732 3.582 10.732 0 3.581 0 3.581 0.001 0 3.582 0 17.869 3.581 17.869 3.581 10.728 8.952 10.728 8.952 7.145 3.581 7.145 3.581 3.582"></polyline>
            </g>
        </g>
    </g>
</svg>