<?xml version="1.0" encoding="UTF-8"?>
<svg width="24px" height="24px" viewBox="0 0 24 24" version="1.1" xmlns="http://www.w3.org/2000/svg" xmlns:xlink="http://www.w3.org/1999/xlink">
    <!-- Generator: Sketch 59.1 (86144) - https://sketch.com -->
    <title>dark / Authentic</title>
    <desc>Created with Sketch.</desc>
    <defs>
        <path d="M9.62,2.19333333 L3.58,2.19333333 C2.66806843,2.18761809 1.75656303,2.23436196 0.85,2.33333333 L0.85,0 C1.74101964,0.105221598 2.63783072,0.153652736 3.535,0.145 L16.555,0.145 C17.4520782,0.149736646 18.3486491,0.101318478 19.24,0 L19.24,2.33333333 C18.3485442,2.23327249 17.4520471,2.1848583 16.555,2.18833333 L11.7666667,2.18833333 L11.7666667,8.45833333 L15.8616667,8.45833333 C16.6697608,8.47261524 17.4777443,8.42413623 18.2783333,8.31333333 L18.2783333,10.6466667 C17.477405,10.5391903 16.6697142,10.4901718 15.8616667,10.5 L11.7666667,10.5 L11.7666667,17.7533333 L17.2033333,17.7533333 C18.1383605,17.7655317 19.0730396,17.7098297 20,17.5866667 L20,20 C19.0810795,19.8746048 18.1539909,19.8188903 17.2266667,19.8333333 L2.81833333,19.8333333 C1.8761581,19.823361 0.934433014,19.8790514 7.10542736e-15,20 L7.10542736e-15,17.59 C0.917872618,17.7257732 1.84580657,17.7815385 2.77333333,17.7566667 L3.51166667,17.7566667 L3.51166667,9.735 C3.52596893,8.73651307 3.47363045,7.73818445 3.355,6.74666667 L5.79333333,6.74666667 C5.67608941,7.72993196 5.62375385,8.71985353 5.63666667,9.71 L5.63666667,17.7583333 L9.62,17.7583333 L9.62,2.19333333 Z" id="path-1"></path>
    </defs>
    <g id="dark-/-Authentic" stroke="none" stroke-width="1" fill="none" fill-rule="evenodd">
        <g id="Authentic" transform="translate(2.000000, 2.000000)">
            <rect id="Rectangle-path" fill="#FFFFFF" fill-rule="nonzero" opacity="0" x="0" y="0" width="20" height="20"></rect>
            <mask id="mask-2" fill="white">
                <use xlink:href="#path-1"></use>
            </mask>
            <use id="Mask" fill="#222222" xlink:href="#path-1"></use>
        </g>
    </g>
</svg>