<?xml version="1.0" encoding="UTF-8"?>
<svg width="24px" height="24px" viewBox="0 0 24 24" version="1.1" xmlns="http://www.w3.org/2000/svg" xmlns:xlink="http://www.w3.org/1999/xlink">
    <!-- Generator: Sketch 59.1 (86144) - https://sketch.com -->
    <title>dark / Checklist</title>
    <desc>Created with Sketch.</desc>
    <defs>
        <path d="M14,2 L14,0 L6,0 L6,2 L2,2 L2,20 L18,20 L18,2 L14,2 Z M6,4 L6,6 L14,6 L14,4 L16,4 L16,18 L4,18 L4,4 L6,4 Z M12.1216667,8.34333333 L9.29333333,11.1716667 L7.87833333,9.75666667 L6.465,11.1716667 L9.29333333,14 L13.535,9.75666667 L12.1216667,8.34333333 Z M12,2 L12,4 L8,4 L8,2 L12,2 Z" id="path-1"></path>
    </defs>
    <g id="dark-/-Checklist" stroke="none" stroke-width="1" fill="none" fill-rule="evenodd">
        <g id="Checklist" transform="translate(2.000000, 2.000000)">
            <rect id="Rectangle-path" fill="#FFFFFF" fill-rule="nonzero" opacity="0" x="0" y="0" width="20" height="20"></rect>
            <mask id="mask-2" fill="white">
                <use xlink:href="#path-1"></use>
            </mask>
            <use id="Mask" fill="#222222" xlink:href="#path-1"></use>
        </g>
    </g>
</svg>