<?xml version="1.0" encoding="UTF-8"?>
<svg width="24px" height="24px" viewBox="0 0 24 24" version="1.1" xmlns="http://www.w3.org/2000/svg" xmlns:xlink="http://www.w3.org/1999/xlink">
    <!-- Generator: Sketch 59.1 (86144) - https://sketch.com -->
    <title>dark / Gift</title>
    <desc>Created with Sketch.</desc>
    <defs>
        <path d="M16.4616667,6 C17.4752529,4.22157561 16.9826315,1.96490813 15.3201239,0.770664177 C13.6576162,-0.423579777 11.3617701,-0.169977041 10,1.35833333 C8.63822993,-0.169977041 6.34238378,-0.423579777 4.67987612,0.770664177 C3.01736847,1.96490813 2.52474712,4.22157561 3.53833333,6 L0,6 L0,8 L7.16666667,8 L6,9.16666667 L7.415,10.5816667 L10,8 L12.585,10.585 L14,9.16666667 L12.8333333,8 L20,8 L20,6 L16.4616667,6 Z M5,4 C5,2.8954305 5.8954305,2 7,2 C8.1045695,2 9,2.8954305 9,4 L9,6 L7,6 C5.8954305,6 5,5.1045695 5,4 Z M4,10 L4,18 L16,18 L16,10 L18,10 L18,20 L2,20 L2,10 L4,10 Z M13,2 C14.1045695,2 15,2.8954305 15,4 C15,5.1045695 14.1045695,6 13,6 L11,6 L11,4 C11,2.8954305 11.8954305,2 13,2 Z" id="path-1"></path>
    </defs>
    <g id="dark-/-Gift" stroke="none" stroke-width="1" fill="none" fill-rule="evenodd">
        <g id="Gift" transform="translate(2.000000, 2.000000)">
            <rect id="Rectangle-path" fill="#FFFFFF" fill-rule="nonzero" opacity="0" x="0" y="0" width="20" height="20"></rect>
            <mask id="mask-2" fill="white">
                <use xlink:href="#path-1"></use>
            </mask>
            <use id="Mask" fill="#222222" xlink:href="#path-1"></use>
        </g>
    </g>
</svg>