<?xml version="1.0" encoding="UTF-8"?>
<svg width="24px" height="24px" viewBox="0 0 24 24" version="1.1" xmlns="http://www.w3.org/2000/svg" xmlns:xlink="http://www.w3.org/1999/xlink">
    <!-- Generator: Sketch 59.1 (86144) - https://sketch.com -->
    <title>dark / Lightbulb</title>
    <desc>Created with Sketch.</desc>
    <defs>
        <path d="M11.8333333,18 L11.8333333,20 L7.83333333,20 L7.83333333,18 L11.8333333,18 Z M10,0 C13.396063,0.000882178343 16.421471,2.14583359 17.5463344,5.35019427 C18.6711977,8.55455495 17.6503444,12.1199117 15,14.2433333 L15,14.2433333 L15,16 L5,16 L5,14.2433333 C2.34965561,12.1199117 1.3288023,8.55455495 2.45366564,5.35019427 C3.57852897,2.14583359 6.60393697,0.000882178343 10,0 Z M10.0016667,1.99958483 C7.45396665,1.99958483 5.1840606,3.60852036 4.34028472,6.01243751 C3.49650884,8.41635465 4.26286898,11.0910208 6.25166667,12.6833333 L6.25166667,12.6833333 L7,13.2833333 L7,14 L13,14 L13,13.2833333 L13.7483333,12.6833333 C15.7404644,11.0910208 16.5068245,8.41635465 15.6630486,6.01243751 C14.8192727,3.60852036 12.5493667,1.99958483 10.0016667,1.99958483 Z M7,6 C7.55228475,6 8,6.44771525 8,7 C8,7.55228475 7.55228475,8 7,8 C6.44771525,8 6,7.55228475 6,7 C6,6.44771525 6.44771525,6 7,6 Z" id="path-1"></path>
    </defs>
    <g id="dark-/-Lightbulb" stroke="none" stroke-width="1" fill="none" fill-rule="evenodd">
        <g id="Lightbulb" transform="translate(2.000000, 2.000000)">
            <rect id="Rectangle-path" fill="#FFFFFF" fill-rule="nonzero" opacity="0" x="0" y="0" width="20" height="20"></rect>
            <mask id="mask-2" fill="white">
                <use xlink:href="#path-1"></use>
            </mask>
            <use id="Mask" fill="#222222" xlink:href="#path-1"></use>
        </g>
    </g>
</svg>