<?xml version="1.0" encoding="UTF-8"?>
<svg width="24px" height="24px" viewBox="0 0 24 24" version="1.1" xmlns="http://www.w3.org/2000/svg" xmlns:xlink="http://www.w3.org/1999/xlink">
    <!-- Generator: Sketch 59.1 (86144) - https://sketch.com -->
    <title>dark / Link</title>
    <desc>Created with Sketch.</desc>
    <defs>
        <path d="M11.0242928,6 C12.34688,6 13.6152851,6.526862 14.5504163,7.46465859 L14.5504163,7.46465859 L18.5394318,11.4643665 C20.4868561,13.4170108 20.4868561,16.5828726 18.5394318,18.5355168 C16.5920076,20.4881611 13.434609,20.4881611 11.4871848,18.5355168 L11.4871848,18.5355168 L11.4871848,18.5338503 L9.82509498,16.8673053 L11.2345471,15.4540752 L12.8966369,17.1206201 L13.042323,17.257294 C13.7900053,17.9133246 14.8188644,18.1572346 15.7869286,17.8971473 C16.8195303,17.6197209 17.6260841,16.8110052 17.9027689,15.7756356 C18.1794537,14.740266 17.8842345,13.6355398 17.1283176,12.8775967 L17.1283176,12.8775967 L13.139302,8.87788873 C12.5782098,8.3151088 11.8170955,7.99892687 11.0234617,7.99892687 C10.2298279,7.99892687 9.46871361,8.3151088 8.90762141,8.87788873 L8.90762141,8.87788873 L8.24278549,9.54450671 L6.83333333,8.13127658 L7.49816925,7.46465859 L7.68955645,7.28261275 C8.60266192,6.45895534 9.78987804,6 11.0242928,6 Z M3.7532926,0.162367891 C5.51045864,-0.293213524 7.37906662,0.225792902 8.64091557,1.51990663 L8.64091557,1.51990663 L10.3161807,3.17930389 L8.89555587,4.58647277 L7.2202907,2.92707551 L7.07376155,2.78914679 C6.32131121,2.1268778 5.27955905,1.87733251 4.29802486,2.13522124 C3.25105504,2.41030256 2.43346697,3.22046474 2.15616652,4.25762576 C1.87886607,5.29478678 2.18446051,6.39958668 2.95674082,7.15190094 L2.95674082,7.15190094 L6.97737725,11.1344544 C7.54291722,11.6948206 8.3100649,12.0096464 9.10998982,12.0096464 C9.90991474,12.0096464 10.6770624,11.6948206 11.2426024,11.1344544 L11.2426024,11.1344544 L11.9127085,10.4706955 L13.3333333,11.8778643 L12.6632273,12.5416232 L12.4703229,12.7228883 C11.5499793,13.5430131 10.3533521,14 9.10915219,14 C7.77608083,14 6.49762106,13.4753977 5.55507711,12.5416232 L5.55507711,12.5416232 L1.53444068,8.55906981 C0.227952037,7.30917295 -0.296017366,5.45826421 0.163920527,3.71774185 C0.62385842,1.97721948 1.99612656,0.617949305 3.7532926,0.162367891 Z" id="path-1"></path>
    </defs>
    <g id="dark-/-Link" stroke="none" stroke-width="1" fill="none" fill-rule="evenodd">
        <g id="Link" transform="translate(2.000000, 2.000000)">
            <rect id="Rectangle-path" fill="#FFFFFF" fill-rule="nonzero" opacity="0" x="0" y="0" width="20" height="20"></rect>
            <mask id="mask-2" fill="white">
                <use xlink:href="#path-1"></use>
            </mask>
            <use id="Mask" fill="#222222" xlink:href="#path-1"></use>
        </g>
    </g>
</svg>