<?xml version="1.0" encoding="UTF-8"?>
<svg width="24px" height="24px" viewBox="0 0 24 24" version="1.1" xmlns="http://www.w3.org/2000/svg" xmlns:xlink="http://www.w3.org/1999/xlink">
    <!-- Generator: Sketch 59.1 (86144) - https://sketch.com -->
    <title>dark / Printer</title>
    <desc>Created with Sketch.</desc>
    <defs>
        <path d="M16,4 L16,0 L4,0 L4,4 L0,4 L0,14 L2,14 L2,6 L18,6 L18,14 L20,14 L20,4 L16,4 Z M16,12 L16,20 L4,20 L4,12 L16,12 Z M14,14 L6,14 L6,18 L14,18 L14,14 Z M5,8 C5.55228475,8 6,8.44771525 6,9 C6,9.55228475 5.55228475,10 5,10 C4.44771525,10 4,9.55228475 4,9 C4,8.44771525 4.44771525,8 5,8 Z M14,2 L14,4 L6,4 L6,2 L14,2 Z" id="path-1"></path>
    </defs>
    <g id="dark-/-Printer" stroke="none" stroke-width="1" fill="none" fill-rule="evenodd">
        <g id="Printer" transform="translate(2.000000, 2.000000)">
            <rect id="Rectangle-path" fill="#FFFFFF" fill-rule="nonzero" opacity="0" x="0" y="0" width="20" height="20"></rect>
            <mask id="mask-2" fill="white">
                <use xlink:href="#path-1"></use>
            </mask>
            <use id="Mask" fill="#222222" xlink:href="#path-1"></use>
        </g>
    </g>
</svg>