<?xml version="1.0" encoding="UTF-8"?>
<svg width="24px" height="24px" viewBox="0 0 24 24" version="1.1" xmlns="http://www.w3.org/2000/svg" xmlns:xlink="http://www.w3.org/1999/xlink">
    <!-- Generator: Sketch 59.1 (86144) - https://sketch.com -->
    <title>dark / Spanner</title>
    <desc>Created with Sketch.</desc>
    <defs>
        <path d="M19.2966667,5.11833333 C19.0207281,4.48276127 18.6681117,3.88331334 18.2466667,3.33333333 L16.8166667,4.76333333 L12,9.585 L10.415,8 L15.2316667,3.18333333 L16.6666667,1.75333333 C13.5928779,-0.596482837 9.31999155,-0.573962814 6.27114198,1.8081224 C3.22229242,4.19020762 2.16684262,8.33074989 3.70333333,11.8816667 L2,13.5866667 L0,15.5866667 L0,18.42 L0.415,18 L2,16.415 L4.75333333,13.6666667 L6.18333333,12.2366667 C4.59712526,9.9775153 4.61083186,6.96290101 6.21751738,4.71826683 C7.8242029,2.47363265 10.6733855,1.48862226 13.3233333,2.26166667 L7.585,8 L9,9.415 L10.585,11 L12,12.415 L17.7383333,6.67666667 C18.5088775,9.32499801 17.5241261,12.1712708 15.2817037,13.7771782 C13.0392812,15.3830855 10.027512,15.3989147 7.76833333,13.8166667 L6.33333333,15.2466667 L3.58666667,18 L2,19.5866667 L1.58666667,20 L4.42,20 L6.42,18 L8.11833333,16.2966667 C11.318715,17.6830234 15.0412145,16.9736435 17.507429,14.507429 C19.9736435,12.0412145 20.6830234,8.318715 19.2966667,5.11833333 Z" id="path-1"></path>
    </defs>
    <g id="dark-/-Spanner" stroke="none" stroke-width="1" fill="none" fill-rule="evenodd">
        <g id="Spanner" transform="translate(2.000000, 2.000000)">
            <rect id="Rectangle-path" fill="#999999" fill-rule="nonzero" opacity="0" x="0" y="0" width="20" height="20"></rect>
            <mask id="mask-2" fill="white">
                <use xlink:href="#path-1"></use>
            </mask>
            <use id="Mask" fill="#222222" xlink:href="#path-1"></use>
        </g>
    </g>
</svg>