<?xml version="1.0" encoding="UTF-8"?>
<svg width="24px" height="24px" viewBox="0 0 24 24" version="1.1" xmlns="http://www.w3.org/2000/svg" xmlns:xlink="http://www.w3.org/1999/xlink">
    <!-- Generator: Sketch 59.1 (86144) - https://sketch.com -->
    <title>dark / SpeechDots</title>
    <desc>Created with Sketch.</desc>
    <defs>
        <path d="M20,8.8817842e-16 L20,16 L9.65666667,16 C8.80912363,18.3972137 6.54262912,20 4,20 L4,20 L4,18 C6.209139,18 8,16.209139 8,14 L8,14 L18,14 L18,2 L2,2 L2,14 L4,14 L4,16 L1.77635684e-15,16 L1.77635684e-15,8.8817842e-16 L20,8.8817842e-16 Z M10,7 C10.5522847,7 11,7.44771525 11,8 C11,8.55228475 10.5522847,9 10,9 C9.44771525,9 9,8.55228475 9,8 C9,7.44771525 9.44771525,7 10,7 Z M6,7 C6.55228475,7 7,7.44771525 7,8 C7,8.55228475 6.55228475,9 6,9 C5.44771525,9 5,8.55228475 5,8 C5,7.44771525 5.44771525,7 6,7 Z M14,7 C14.5522847,7 15,7.44771525 15,8 C15,8.55228475 14.5522847,9 14,9 C13.4477153,9 13,8.55228475 13,8 C13,7.44771525 13.4477153,7 14,7 Z" id="path-1"></path>
    </defs>
    <g id="dark-/-SpeechDots" stroke="none" stroke-width="1" fill="none" fill-rule="evenodd">
        <g id="SpeechDots" transform="translate(2.000000, 2.000000)">
            <rect id="Rectangle-path" fill="#FFFFFF" fill-rule="nonzero" opacity="0" x="0" y="0" width="20" height="20"></rect>
            <mask id="mask-2" fill="white">
                <use xlink:href="#path-1"></use>
            </mask>
            <use id="Mask" fill="#222222" xlink:href="#path-1"></use>
        </g>
    </g>
</svg>