<?xml version="1.0" encoding="UTF-8"?>
<svg width="24px" height="24px" viewBox="0 0 24 24" version="1.1" xmlns="http://www.w3.org/2000/svg" xmlns:xlink="http://www.w3.org/1999/xlink">
    <!-- Generator: Sketch 59.1 (86144) - https://sketch.com -->
    <title>dark / SpeechInfo</title>
    <desc>Created with Sketch.</desc>
    <defs>
        <path d="M20,0 L20,16 L9.65666667,16 C8.80912363,18.3972137 6.54262912,20 4,20 L4,20 L4,18 C6.209139,18 8,16.209139 8,14 L8,14 L18,14 L18,2 L2,2 L2,14 L4,14 L4,16 L0,16 L0,0 L20,0 Z M11,8 L11,12 L9,12 L9,8 L11,8 Z M10,4 C10.5522847,4 11,4.44771525 11,5 C11,5.55228475 10.5522847,6 10,6 C9.44771525,6 9,5.55228475 9,5 C9,4.44771525 9.44771525,4 10,4 Z" id="path-1"></path>
    </defs>
    <g id="dark-/-SpeechInfo" stroke="none" stroke-width="1" fill="none" fill-rule="evenodd">
        <g id="SpeechInfo" transform="translate(2.000000, 2.000000)">
            <rect id="Rectangle-path" fill="#FFFFFF" fill-rule="nonzero" opacity="0" x="0" y="0" width="20" height="20"></rect>
            <mask id="mask-2" fill="white">
                <use xlink:href="#path-1"></use>
            </mask>
            <use id="Mask" fill="#222222" xlink:href="#path-1"></use>
        </g>
    </g>
</svg>