<?xml version="1.0" encoding="UTF-8"?>
<svg width="24px" height="24px" viewBox="0 0 24 24" version="1.1" xmlns="http://www.w3.org/2000/svg" xmlns:xlink="http://www.w3.org/1999/xlink">
    <!-- Generator: Sketch 59.1 (86144) - https://sketch.com -->
    <title>dark / Trash</title>
    <desc>Created with Sketch.</desc>
    <defs>
        <path d="M13,4 L13,0 L7,0 L7,4 L2,4 L2,6 L18,6 L18,4 L13,4 Z M5,8 L5,18 L15,18 L15,8 L17,8 L17,20 L3,20 L3,8 L5,8 Z M13,8 L13,16 L11,16 L11,8 L13,8 Z M9,8 L9,16 L7,16 L7,8 L9,8 Z M11,2 L11,4 L9,4 L9,2 L11,2 Z" id="path-1"></path>
    </defs>
    <g id="dark-/-Trash" stroke="none" stroke-width="1" fill="none" fill-rule="evenodd">
        <g id="Trash" transform="translate(2.000000, 2.000000)">
            <rect id="Rectangle-path" fill="#FFFFFF" fill-rule="nonzero" opacity="0" x="0" y="0" width="20" height="20"></rect>
            <mask id="mask-2" fill="white">
                <use xlink:href="#path-1"></use>
            </mask>
            <use id="Mask" fill="#222222" xlink:href="#path-1"></use>
        </g>
    </g>
</svg>