<?xml version="1.0" encoding="UTF-8"?>
<svg width="24px" height="24px" viewBox="0 0 24 24" version="1.1" xmlns="http://www.w3.org/2000/svg" xmlns:xlink="http://www.w3.org/1999/xlink">
    <!-- Generator: Sketch 59.1 (86144) - https://sketch.com -->
    <title>dark / Women</title>
    <desc>Created with Sketch.</desc>
    <defs>
        <path d="M8,0 C8,1.1045695 8.8954305,2 10,2 C11.1045695,2 12,1.1045695 12,0 L12,0 L16.6666667,0 L16,10 L20,20 L0,20 L4,10 L3.33333333,0 Z M6.53666667,2 L5.47166667,2 L6.025,10.32 L2.95333333,18 L17.0466667,18 L13.975,10.32 L14.5283333,2 L13.4633333,2 C12.7489394,3.23736663 11.4287879,3.99972556 10,4 C8.57121213,3.99972556 7.25106059,3.23736663 6.53666667,2 L6.53666667,2 Z M10,6 C10.5522847,6 11,6.44771525 11,7 C11,7.55228475 10.5522847,8 10,8 C9.44771525,8 9,7.55228475 9,7 C9,6.44771525 9.44771525,6 10,6 Z" id="path-1"></path>
    </defs>
    <g id="dark-/-Women" stroke="none" stroke-width="1" fill="none" fill-rule="evenodd">
        <g id="Women" transform="translate(2.000000, 2.000000)">
            <rect id="Rectangle-path" fill="#FFFFFF" fill-rule="nonzero" opacity="0" x="0" y="0" width="20" height="20"></rect>
            <mask id="mask-2" fill="white">
                <use xlink:href="#path-1"></use>
            </mask>
            <use id="Mask" fill="#222222" xlink:href="#path-1"></use>
        </g>
    </g>
</svg>