<?xml version="1.0" encoding="UTF-8"?>
<svg width="24px" height="24px" viewBox="0 0 24 24" version="1.1" xmlns="http://www.w3.org/2000/svg" xmlns:xlink="http://www.w3.org/1999/xlink">
    <!-- Generator: Sketch 59.1 (86144) - https://sketch.com -->
    <title>old / light / HeartOutline</title>
    <desc>Created with Sketch.</desc>
    <g id="old-/-light-/-HeartOutline" stroke="none" stroke-width="1" fill="none" fill-rule="evenodd">
        <path d="M11.9744559,17.5095434 C11.9744464,17.5095514 11.9744369,17.5095594 11.9744274,17.5095674 C11.9744369,17.5095594 11.9744464,17.5095514 11.9744559,17.5095434 Z M11.9999544,17.4880133 C12.3455755,17.1962366 12.6532906,16.9386852 13.1997612,16.4828472 C15.7643902,14.3429347 16.6734669,13.5120731 17.4647179,12.472722 C18.164033,11.5541337 18.5,10.7120524 18.5,9.83186664 C18.5,7.91826034 17.1482675,6.5 15.347832,6.5 C14.0639512,6.5 13.1072006,7.22327099 12.4295637,8.36086324 L12,9.08199909 L11.5704363,8.36086324 C10.8928092,7.22328743 9.93603089,6.5 8.65216797,6.5 C6.85173246,6.5 5.5,7.91826034 5.5,9.83186664 C5.5,10.7120161 5.83593923,11.5540646 6.53519514,12.4726147 C7.32643082,13.5119903 8.23541817,14.3427896 10.8001559,16.4828548 C11.3465914,16.9386634 11.6542965,17.1962063 11.9999544,17.4880133 Z M12.0256462,17.5097066 C12.0256504,17.5097102 12.0256546,17.5097137 12.0256589,17.5097173 C12.0256546,17.5097137 12.0256504,17.5097102 12.0256462,17.5097066 Z" id="Shape" stroke="#FFFFFF" fill-rule="nonzero"></path>
    </g>
</svg>