<?xml version="1.0" encoding="UTF-8"?>
<svg width="24px" height="24px" viewBox="0 0 24 24" version="1.1" xmlns="http://www.w3.org/2000/svg" xmlns:xlink="http://www.w3.org/1999/xlink">
    <!-- Generator: Sketch 59.1 (86144) - https://sketch.com -->
    <title>old / light / SearchLarge</title>
    <desc>Created with Sketch.</desc>
    <g id="old-/-light-/-SearchLarge" stroke="none" stroke-width="1" fill="none" fill-rule="evenodd">
        <path d="M10.98955,16.344 C8.5892879,16.344 6.6359,14.3906121 6.6359,11.9895563 C6.6359,9.58929417 8.5892879,7.6367 10.98955,7.6367 C13.3898121,7.6367 15.3432,9.58929417 15.3432,11.9895563 C15.3432,14.3906121 13.3898121,16.344 10.98955,16.344 M18.2601911,18.1029207 L15.7583281,15.6018515 C16.5480977,14.5620544 16.9790975,13.2944544 16.9790975,11.9895488 C16.9790975,8.68680395 14.2922936,6 10.9895488,6 C7.68680395,6 5,8.68680395 5,11.9895488 C5,15.2930873 7.68680395,17.9798913 10.9895488,17.9798913 C12.2936607,17.9798913 13.5620544,17.5488914 14.6018515,16.7591219 L17.1029207,19.2601911 C17.2576997,19.41497 17.4632779,19.4999 17.6815559,19.4999 C17.8998339,19.4999 18.1054121,19.41497 18.2593973,19.2601911 C18.4141763,19.1062058 18.4991063,18.9006276 18.4999,18.6823496 C18.4999,18.4632779 18.41497,18.2576997 18.2601911,18.1029207" id="Fill-1" fill="#FFFFFF" fill-rule="nonzero"></path>
    </g>
</svg>