<?xml version="1.0" encoding="UTF-8"?>
<svg width="24px" height="24px" viewBox="0 0 24 24" version="1.1" xmlns="http://www.w3.org/2000/svg" xmlns:xlink="http://www.w3.org/1999/xlink">
    <!-- Generator: Sketch 59.1 (86144) - https://sketch.com -->
    <title>old / light / Share</title>
    <desc>Created with Sketch.</desc>
    <g id="old-/-light-/-Share" stroke="none" stroke-width="1" fill="none" fill-rule="evenodd">
        <path d="M8,10.5 C7.72385763,10.5 7.5,10.7238576 7.5,11 L7.5,18 C7.5,18.2761424 7.72385763,18.5 8,18.5 L16,18.5 C16.2761424,18.5 16.5,18.2761424 16.5,18 L16.5,11 C16.5,10.7238576 16.2761424,10.5 16,10.5 L8,10.5 Z M10,10.5 L14,10.5 L14,9 L16,9 C17.1045695,9 18,9.8954305 18,11 L18,18 C18,19.1045695 17.1045695,20 16,20 L8,20 C6.8954305,20 6,19.1045695 6,18 L6,11 C6,9.8954305 6.8954305,9 8,9 L10,9 L10,10.5 Z" id="Combined-Shape" fill="#FFFFFF" fill-rule="nonzero"></path>
        <path d="M12,4 L13.0606602,5.06066017 L15.1819805,7.18198052 L14.1213203,8.24264069 L12.7490195,6.87 L12.75,15 L11.25,15 L11.2490195,6.871 L9.87867966,8.24264069 L8.81801948,7.18198052 L12,4 Z" id="Combined-Shape" fill="#FFFFFF" fill-rule="nonzero"></path>
    </g>
</svg>