<?xml version="1.0" encoding="UTF-8"?>
<svg width="24px" height="24px" viewBox="0 0 24 24" version="1.1" xmlns="http://www.w3.org/2000/svg" xmlns:xlink="http://www.w3.org/1999/xlink">
    <!-- Generator: Sketch 59.1 (86144) - https://sketch.com -->
    <title>old / light / Warning</title>
    <desc>Created with Sketch.</desc>
    <g id="old-/-light-/-Warning" stroke="none" stroke-width="1" fill="none" fill-rule="evenodd">
        <path d="M12,21.5 C17.2467051,21.5 21.5,17.2467051 21.5,12 C21.5,6.75329488 17.2467051,2.5 12,2.5 C6.75329488,2.5 2.5,6.75329488 2.5,12 C2.5,17.2467051 6.75329488,21.5 12,21.5 Z M12,1 C18.0751322,1 23,5.92486775 23,12 C23,18.0751322 18.0751322,23 12,23 C5.92486775,23 1,18.0751322 1,12 C1,5.92486775 5.92486775,1 12,1 Z M12,15 C11.4477153,15 11,15.4477153 11,16 C11,16.5522847 11.4477153,17 12,17 C12.5522847,17 13,16.5522847 13,16 C13,15.4477153 12.5522847,15 12,15 Z M12,7 C11.4477152,7 11,7.4263954 11,7.95238091 L11,7.95238091 L11,12.5 C11,13.0259855 11.4477152,13.452381 12,13.452381 C12.5522848,13.452381 13,13.0259855 13,12.5 L13,12.5 L13,7.95238091 C13,7.4263954 12.5522848,7 12,7 Z" id="Combined-Shape" fill="#FFFFFF" fill-rule="nonzero"></path>
    </g>
</svg>