<?xml version="1.0" encoding="UTF-8"?>
<svg width="24px" height="24px" viewBox="0 0 24 24" version="1.1" xmlns="http://www.w3.org/2000/svg" xmlns:xlink="http://www.w3.org/1999/xlink">
    <!-- Generator: Sketch 59.1 (86144) - https://sketch.com -->
    <title>old / light / Wechat</title>
    <desc>Created with Sketch.</desc>
    <g id="old-/-light-/-Wechat" stroke="none" stroke-width="1" fill="none" fill-rule="evenodd">
        <path d="M16.5,9.5 C20.6415,9.5 24,12.1865 24,15.5 C24,17.3385625 22.9475104,18.9663516 21.3178047,20.065198 L21.102,20.2055 L22.5,23 L18.4575,21.2675 C17.829,21.404 17.181,21.5 16.5,21.5 C12.3585,21.5 9,18.8135 9,15.5 C9,12.1865 12.3585,9.5 16.5,9.5 Z M9,2 C13.392,2 17.0445,4.6235 17.8365,8.0915 C17.3985,8.0375 16.9545,8 16.5,8 C11.5365,8 7.5,11.3645 7.5,15.5 C7.5,15.9815 7.56,16.451 7.665,16.9085 C7.02375,16.82975 6.416875,16.676 5.83135417,16.4845764 L5.4825,16.3655 L2.25,17.75 L3.4365,15.377 C1.347,14.006 0,11.888 0,9.5 C0,5.3585 4.029,2 9,2 Z M14.2330827,12.9595491 C13.6126967,12.9595491 13.1097744,13.4645647 13.1097744,14.0875332 C13.1097744,14.7105016 13.6126967,15.2155172 14.2330827,15.2155172 C14.8534687,15.2155172 15.356391,14.7105016 15.356391,14.0875332 C15.356391,13.4645647 14.8534687,12.9595491 14.2330827,12.9595491 Z M18.7263158,12.9595491 C18.1059298,12.9595491 17.6030075,13.4645647 17.6030075,14.0875332 C17.6030075,14.7105016 18.1059298,15.2155172 18.7263158,15.2155172 C19.3467018,15.2155172 19.8496241,14.7105016 19.8496241,14.0875332 C19.8496241,13.4645647 19.3467018,12.9595491 18.7263158,12.9595491 Z M5.99548872,5.43965517 C5.37510269,5.43965517 4.87218045,5.94467085 4.87218045,6.56763926 C4.87218045,7.19060767 5.37510269,7.69562334 5.99548872,7.69562334 C6.61587475,7.69562334 7.11879699,7.19060767 7.11879699,6.56763926 C7.11879699,5.94467085 6.61587475,5.43965517 5.99548872,5.43965517 Z M11.9864662,5.43965517 C11.3660801,5.43965517 10.8631579,5.94467085 10.8631579,6.56763926 C10.8631579,7.19060767 11.3660801,7.69562334 11.9864662,7.69562334 C12.6068522,7.69562334 13.1097744,7.19060767 13.1097744,6.56763926 C13.1097744,5.94467085 12.6068522,5.43965517 11.9864662,5.43965517 Z" id="Combined-Shape" fill="#FFFFFF"></path>
    </g>
</svg>