<?xml version="1.0" encoding="UTF-8"?>
<svg width="24px" height="24px" viewBox="0 0 24 24" version="1.1" xmlns="http://www.w3.org/2000/svg" xmlns:xlink="http://www.w3.org/1999/xlink">
    <!-- Generator: Sketch 59.1 (86144) - https://sketch.com -->
    <title>old / light / Wishlist</title>
    <desc>Created with Sketch.</desc>
    <g id="old-/-light-/-Wishlist" stroke="none" stroke-width="1" fill="none" fill-rule="evenodd">
        <path d="M19.8337138,10.0060096 L13.8603648,10.0060096 L12.0147594,4.28635515 C11.959679,4.11586625 11.8018366,4 11.6226196,4 C11.4442248,4 11.2863824,4.11586625 11.231302,4.28635515 L9.38487451,10.0060096 L3.41152547,10.0060096 C3.23313065,10.0060096 3.07528823,10.1210482 3.0202078,10.2923647 C2.96512738,10.4636813 3.02514038,10.6507225 3.16982926,10.7558297 L8.00210916,14.2905778 L6.15650379,20.0094047 C6.10060126,20.1798936 6.16143636,20.3677624 6.30612525,20.4728696 C6.44999204,20.5788045 6.64565087,20.5788045 6.79033975,20.4728696 L11.6226196,16.9381215 L16.4557216,20.4728696 C16.527244,20.5258371 16.612742,20.5523208 16.6974178,20.5523208 C16.7820937,20.5523208 16.8675917,20.5258371 16.939114,20.4728696 C17.0838029,20.3677624 17.144638,20.1798936 17.0887355,20.0094047 L15.2431301,14.2905778 L20.07541,10.7558297 C20.2200989,10.6507225 20.280934,10.4636813 20.2250315,10.2923647 C20.1699511,10.1210482 20.0121086,10.0060096 19.8337138,10.0060096 Z" id="Fill-2" fill="#FFFFFF" fill-rule="nonzero"></path>
    </g>
</svg>