<?xml version="1.0" encoding="UTF-8"?>
<svg width="24px" height="24px" viewBox="0 0 24 24" version="1.1" xmlns="http://www.w3.org/2000/svg" xmlns:xlink="http://www.w3.org/1999/xlink">
    <!-- Generator: Sketch 59.1 (86144) - https://sketch.com -->
    <title>old / dark / Camera</title>
    <desc>Created with Sketch.</desc>
    <g id="old-/-dark-/-Camera" stroke="none" stroke-width="1" fill="none" fill-rule="evenodd">
        <path d="M20,6.5 C18.6666667,6.5 17.6666667,6.5 17,6.5 C16,5.5 15.5,4 14.5,4 L9.5,4 C8.5,4 8,5.5 7,6.5 C6.33333333,6.5 5.33333333,6.5 4,6.5 C3,6.5 2.5,7 2.5,8 L2.5,18.5 C2.5,19.5 3,20 4,20 L20,20 C21,20 21.5,19.5 21.5,18.5 L21.5,8 C21.5,7 21,6.5 20,6.5 Z M12,8 C14.7697842,8 17,10.2302158 17,13 C17,15.7697842 14.7697842,18 12,18 C9.23021583,18 7,15.7697842 7,13 C7,10.2302158 9.23021583,8 12,8 Z M12,9.5 C10.0670034,9.5 8.5,11.0670034 8.5,13 C8.5,14.9329966 10.0670034,16.5 12,16.5 C13.9329966,16.5 15.5,14.9329966 15.5,13 C15.5,11.0670034 13.9329966,9.5 12,9.5 Z" id="Combined-Shape" fill="#222222" fill-rule="nonzero"></path>
    </g>
</svg>