<?xml version="1.0" encoding="UTF-8"?>
<svg width="24px" height="24px" viewBox="0 0 24 24" version="1.1" xmlns="http://www.w3.org/2000/svg" xmlns:xlink="http://www.w3.org/1999/xlink">
    <!-- Generator: Sketch 59.1 (86144) - https://sketch.com -->
    <title>old / dark / CrossLarge</title>
    <desc>Created with Sketch.</desc>
    <g id="old-/-dark-/-CrossLarge" stroke="none" stroke-width="1" fill="none" fill-rule="evenodd">
        <path d="M13.7781746,12.363961 L19.4350288,18.0208153 C19.8255531,18.4113396 19.8255531,19.0445046 19.4350288,19.4350288 C19.0445046,19.8255531 18.4113396,19.8255531 18.0208153,19.4350288 L12.363961,13.7781746 L6.70710678,19.4350288 C6.31658249,19.8255531 5.68341751,19.8255531 5.29289322,19.4350288 C4.90236893,19.0445046 4.90236893,18.4113396 5.29289322,18.0208153 L10.9497475,12.363961 L5.29289322,6.70710678 C4.90236893,6.31658249 4.90236893,5.68341751 5.29289322,5.29289322 C5.68341751,4.90236893 6.31658249,4.90236893 6.70710678,5.29289322 L12.363961,10.9497475 L18.0208153,5.29289322 C18.4113396,4.90236893 19.0445046,4.90236893 19.4350288,5.29289322 C19.8255531,5.68341751 19.8255531,6.31658249 19.4350288,6.70710678 L13.7781746,12.363961 Z" id="Combined-Shape" fill="#222222" fill-rule="nonzero"></path>
    </g>
</svg>