<?xml version="1.0" encoding="UTF-8"?>
<svg width="24px" height="24px" viewBox="0 0 24 24" version="1.1" xmlns="http://www.w3.org/2000/svg" xmlns:xlink="http://www.w3.org/1999/xlink">
    <!-- Generator: Sketch 59.1 (86144) - https://sketch.com -->
    <title>old / dark / Heart</title>
    <desc>Created with Sketch.</desc>
    <g id="old-/-dark-/-Heart" stroke="none" stroke-width="1" fill="none" fill-rule="evenodd">
        <path d="M12,18 C11.8941797,18 11.7883867,17.963829 11.7029375,17.8916216 C11.281625,17.5358139 10.8732461,17.1949382 10.4798789,16.8668113 C7.29865234,14.2123364 5,12.2944086 5,9.83186664 C5,7.64737275 6.57005078,6 8.65216797,6 C10.4235508,6 11.4718281,7.21830654 12,8.10498228 C12.5281719,7.21830654 13.5764219,6 15.347832,6 C17.4299492,6 19,7.64737275 19,9.83186664 C19,12.2944086 16.7013477,14.2123364 13.5200937,16.8667574 C13.1267266,17.1948843 12.7183477,17.53576 12.2970352,17.8915677 C12.2116133,17.963802 12.1058203,18 12,18 Z" id="Shape" fill="#222222" fill-rule="nonzero"></path>
    </g>
</svg>