<?xml version="1.0" encoding="UTF-8"?>
<svg width="24px" height="24px" viewBox="0 0 24 24" version="1.1" xmlns="http://www.w3.org/2000/svg" xmlns:xlink="http://www.w3.org/1999/xlink">
    <!-- Generator: Sketch 59.1 (86144) - https://sketch.com -->
    <title>old / dark / Info</title>
    <desc>Created with Sketch.</desc>
    <g id="old-/-dark-/-Info" stroke="none" stroke-width="1" fill="none" fill-rule="evenodd">
        <path d="M12,21.5 C17.2467051,21.5 21.5,17.2467051 21.5,12 C21.5,6.75329488 17.2467051,2.5 12,2.5 C6.75329488,2.5 2.5,6.75329488 2.5,12 C2.5,17.2467051 6.75329488,21.5 12,21.5 Z M12,1 C18.0751322,1 23,5.92486775 23,12 C23,18.0751322 18.0751322,23 12,23 C5.92486775,23 1,18.0751322 1,12 C1,5.92486775 5.92486775,1 12,1 Z M12,10 C11.5857864,10 11.25,10.3357864 11.25,10.75 L11.25,10.75 L11.25,17.25 C11.25,17.6642136 11.5857864,18 12,18 C12.4142136,18 12.75,17.6642136 12.75,17.25 L12.75,17.25 L12.75,10.75 C12.75,10.3357864 12.4142136,10 12,10 Z M12,6 C11.4477153,6 11,6.44771525 11,7 C11,7.55228475 11.4477153,8 12,8 C12.5522847,8 13,7.55228475 13,7 C13,6.44771525 12.5522847,6 12,6 Z" id="Combined-Shape" fill="#222222" fill-rule="nonzero"></path>
    </g>
</svg>