<?xml version="1.0" encoding="UTF-8"?>
<svg width="24px" height="24px" viewBox="0 0 24 24" version="1.1" xmlns="http://www.w3.org/2000/svg" xmlns:xlink="http://www.w3.org/1999/xlink">
    <!-- Generator: Sketch 59.1 (86144) - https://sketch.com -->
    <title>old / dark / NewSearch</title>
    <desc>Created with Sketch.</desc>
    <g id="old-/-dark-/-NewSearch" stroke="none" stroke-width="1" fill="none" fill-rule="evenodd">
        <path d="M14.9615735,4 C19.0593387,4 22.3928967,7.44088331 22.3928967,11.6705777 C22.3928967,13.3417186 21.8581487,14.9650837 20.8782697,16.2967106 L23.9823687,19.4997307 C24.1744052,19.69795 22.7385625,21.1800203 22.5465259,20.9818011 L19.4434119,17.7787809 C18.15332,18.7902075 16.5796048,19.3421719 14.9615735,19.3421719 C10.8638084,19.3421719 7.53025036,15.9012885 7.53025036,11.6705777 C7.53025036,7.44088331 10.8638084,4 14.9615735,4 Z M14.9615751,6.09605681 C11.9835338,6.09605681 9.55993609,8.59666676 9.55993609,11.6705873 C9.55993609,14.7455243 11.9835338,17.2471508 14.9615751,17.2471508 C17.9396163,17.2471508 20.3632141,14.7455243 20.3632141,11.6705873 C20.3632141,8.59666676 17.9396163,6.09605681 14.9615751,6.09605681 Z M0.985266405,8.06794983 C0.441118793,8.06794983 0,7.61262904 0,7.05096238 C0,6.48929571 0.441118793,6.03397492 0.985266405,6.03397492 L5.20783669,6.03397492 C5.7519843,6.03397492 6.1931031,6.48929571 6.1931031,7.05096238 C6.1931031,7.61262904 5.7519843,8.06794983 5.20783669,8.06794983 L0.985266405,8.06794983 Z M0.985266405,13.1528871 C0.441118793,13.1528871 0,12.6975663 0,12.1358997 C0,11.574233 0.441118793,11.1189122 0.985266405,11.1189122 L3.23730389,11.1189122 C3.7814515,11.1189122 4.22257029,11.574233 4.22257029,12.1358997 C4.22257029,12.6975663 3.7814515,13.1528871 3.23730389,13.1528871 L0.985266405,13.1528871 Z M1.00644078,18.2378244 C0.462293172,18.2378244 0.021174378,17.7825036 0.021174378,17.220837 C0.021174378,16.6591703 0.462293172,16.2038495 1.00644078,16.2038495 L5.51174629,16.2038495 C6.0558939,16.2038495 6.49701269,16.6591703 6.49701269,17.220837 C6.49701269,17.7825036 6.0558939,18.2378244 5.51174629,18.2378244 L1.00644078,18.2378244 Z" id="Combined-Shape" fill="#222222" fill-rule="nonzero"></path>
    </g>
</svg>