<?xml version="1.0" encoding="UTF-8"?>
<svg width="24px" height="24px" viewBox="0 0 24 24" version="1.1" xmlns="http://www.w3.org/2000/svg" xmlns:xlink="http://www.w3.org/1999/xlink">
    <!-- Generator: Sketch 59.1 (86144) - https://sketch.com -->
    <title>light / AttachDoc</title>
    <desc>Created with Sketch.</desc>
    <defs>
        <path d="M20,0 L20,20 L4,20 L4,16 L6,16 L6,18 L18,18 L18,2 L12,2 L12,0 L20,0 Z M2,0 L2,9 C2,10.6568542 3.34314575,12 5,12 C6.65685425,12 8,10.6568542 8,9 L8,9 L8,3 C8,2.44771525 7.55228475,2 7,2 C6.44771525,2 6,2.44771525 6,3 L6,3 L6,8 L4,8 L4,3 C4,1.34314577 5.34314577,0 7,0 C8.65685423,0 10,1.34314577 10,3 L10,3 L10,9 C10,11.7614237 7.76142375,14 5,14 C2.23857625,14 0,11.7614237 0,9 L0,9 L0,0 L2,0 Z M16,10 L16,12 L12,12 L12,10 L16,10 Z M16,6 L16,8 L12,8 L12,6 L16,6 Z" id="path-1"></path>
    </defs>
    <g id="light-/-AttachDoc" stroke="none" stroke-width="1" fill="none" fill-rule="evenodd">
        <g id="AttachDoc" transform="translate(2.000000, 2.000000)">
            <rect id="Rectangle-path" fill="#FFFFFF" fill-rule="nonzero" opacity="0" x="0" y="0" width="20" height="20"></rect>
            <mask id="mask-2" fill="white">
                <use xlink:href="#path-1"></use>
            </mask>
            <use id="Mask" fill="#FFFFFF" xlink:href="#path-1"></use>
        </g>
    </g>
</svg>