<?xml version="1.0" encoding="UTF-8"?>
<svg width="24px" height="24px" viewBox="0 0 24 24" version="1.1" xmlns="http://www.w3.org/2000/svg" xmlns:xlink="http://www.w3.org/1999/xlink">
    <!-- Generator: Sketch 59.1 (86144) - https://sketch.com -->
    <title>light / BagPointer</title>
    <desc>Created with Sketch.</desc>
    <defs>
        <path d="M14,4 C14,1.790861 12.209139,0 10,0 C7.790861,0 6,1.790861 6,4 L0,4 L0,20 L10,20 L10,18 L2,18 L2,6 L6,6 L6,10 L8,10 L8,6 L12,6 L12,10 L14,10 L14,6 L18,6 L18,10 L20,10 L20,4 L14,4 Z M12,12 L19,14 L17.2066667,15.7933333 L20,18.5866667 L18.5866667,20 L15.7933333,17.2066667 L14,19 L12,12 Z M10,2 C11.1045695,2 12,2.8954305 12,4 L8,4 C8,2.8954305 8.8954305,2 10,2 Z" id="path-1"></path>
    </defs>
    <g id="light-/-BagPointer" stroke="none" stroke-width="1" fill="none" fill-rule="evenodd">
        <g id="BagPointer" transform="translate(2.000000, 2.000000)">
            <rect id="Rectangle-path" fill="#FFFFFF" fill-rule="nonzero" opacity="0" x="0" y="0" width="20" height="20"></rect>
            <mask id="mask-2" fill="white">
                <use xlink:href="#path-1"></use>
            </mask>
            <use id="Mask" fill="#FFFFFF" xlink:href="#path-1"></use>
        </g>
    </g>
</svg>