<?xml version="1.0" encoding="UTF-8"?>
<svg width="24px" height="24px" viewBox="0 0 24 24" version="1.1" xmlns="http://www.w3.org/2000/svg" xmlns:xlink="http://www.w3.org/1999/xlink">
    <!-- Generator: Sketch 59.1 (86144) - https://sketch.com -->
    <title>light / Balloon</title>
    <desc>Created with Sketch.</desc>
    <defs>
        <path d="M10,18 L11,20 L9,20 L10,18 Z M4.80487887,2.2615333 C7.68626491,-0.620308218 12.3475428,-0.655133783 15.2716667,2.18333333 C18.1834634,5.0953063 18.1834634,9.81636037 15.2716667,12.7283333 L15.2716667,12.7283333 L10,18 L4.72833333,12.7283333 C1.88940405,9.80465815 1.92349283,5.14337483 4.80487887,2.2615333 Z M9.99916667,1.99727489 C7.79190755,1.99727489 5.80203963,3.32703854 4.9576081,5.36638358 C4.11317657,7.40572862 4.58051621,9.75294811 6.14166667,11.3133333 L6.14166667,11.3133333 L10,15.1666667 L13.8566667,11.3133333 C15.4178171,9.75294811 15.8851568,7.40572862 15.0407252,5.36638358 C14.1962937,3.32703854 12.2064258,1.99727489 9.99916667,1.99727489 Z M8,5 C8.55228475,5 9,5.44771525 9,6 C9,6.55228475 8.55228475,7 8,7 C7.44771525,7 7,6.55228475 7,6 C7,5.44771525 7.44771525,5 8,5 Z" id="path-1"></path>
    </defs>
    <g id="light-/-Balloon" stroke="none" stroke-width="1" fill="none" fill-rule="evenodd">
        <g id="Balloon" transform="translate(2.000000, 2.000000)">
            <rect id="Rectangle-path" fill="#FFFFFF" fill-rule="nonzero" opacity="0" x="0" y="0" width="20" height="20"></rect>
            <mask id="mask-2" fill="white">
                <use xlink:href="#path-1"></use>
            </mask>
            <use id="Mask" fill="#FFFFFF" xlink:href="#path-1"></use>
        </g>
    </g>
</svg>