<?xml version="1.0" encoding="UTF-8"?>
<svg width="24px" height="24px" viewBox="0 0 24 24" version="1.1" xmlns="http://www.w3.org/2000/svg" xmlns:xlink="http://www.w3.org/1999/xlink">
    <!-- Generator: Sketch 59.1 (86144) - https://sketch.com -->
    <title>light / BarcodeMagnifier</title>
    <desc>Created with Sketch.</desc>
    <defs>
        <path d="M2.66666667,0 L2.66666667,20 L0,20 L0,0 L2.66666667,0 Z M12.9999999,8 C13.1116667,8 13.2233333,8.01166667 13.3333333,8.01166667 C15.9593033,8.18712165 17.9997141,10.368175 17.9999999,13 L17.9999999,13 L17.9928872,13.2663451 C17.945492,14.1517656 17.6621426,15.0102215 17.17,15.7516667 L17.17,15.7516667 L20.0033333,18.585 L18.59,20 L15.7566667,17.1666667 C15.0344153,17.6473005 14.1989658,17.9305719 13.3333333,17.9883333 C13.2233333,18 13.1116667,18 12.9999999,18 C11.213672,18 9.56303691,17.0470054 8.66987292,15.5 C7.77670893,13.9529946 7.77670893,12.0470054 8.66987292,10.5 C9.56303691,8.95299458 11.213672,8 12.9999999,8 Z M7.27833333,0 L7.27833333,8.97166667 C5.577191,11.38844 5.577191,14.6132267 7.27833333,17.03 L7.27833333,17.03 L7.27833333,18 L4.61166667,18 L4.61166667,0 L7.27833333,0 Z M13.3333333,10.02 C12.0917322,9.87745483 10.8912077,10.5169679 10.3167923,11.6268956 C9.74237684,12.7368233 9.91358026,14.0862401 10.7469727,15.0175561 C11.5803652,15.9488722 12.9025555,16.268323 14.0692218,15.8202357 C15.2358882,15.3721484 16.0043002,14.2497496 16.000018,13 C15.999275,11.4726799 14.8511964,10.1897021 13.3333333,10.02 Z M20,0 L20,13 C20.0020743,11.1685005 19.2836961,9.40967134 18,8.10333333 L18,8.10333333 L18,0 L20,0 Z M11.3333333,0 L11.3333333,6.20333333 C10.6272441,6.37497803 9.95239833,6.65616375 9.33333333,7.03666667 L9.33333333,7.03666667 L9.33333333,0 L11.3333333,0 Z M16,0 L16,6.675 C15.1642521,6.2777583 14.2576952,6.05111908 13.3333333,6.00833333 L13.3333333,6.00833333 L13.3333333,0 L16,0 Z" id="path-1"></path>
    </defs>
    <g id="light-/-BarcodeMagnifier" stroke="none" stroke-width="1" fill="none" fill-rule="evenodd">
        <g id="BarcodeMagnifier" transform="translate(2.000000, 2.000000)">
            <rect id="Rectangle-path" fill="#FFFFFF" fill-rule="nonzero" opacity="0" x="0" y="0" width="20" height="20"></rect>
            <mask id="mask-2" fill="white">
                <use xlink:href="#path-1"></use>
            </mask>
            <use id="Mask" fill="#FFFFFF" xlink:href="#path-1"></use>
        </g>
    </g>
</svg>