<?xml version="1.0" encoding="UTF-8"?>
<svg width="24px" height="24px" viewBox="0 0 24 24" version="1.1" xmlns="http://www.w3.org/2000/svg" xmlns:xlink="http://www.w3.org/1999/xlink">
    <!-- Generator: Sketch 59.1 (86144) - https://sketch.com -->
    <title>light / FAQ</title>
    <desc>Created with Sketch.</desc>
    <defs>
        <path d="M10,0 C12.6521649,0 15.195704,1.0535684 17.0710678,2.92893219 C18.9464316,4.80429597 20,7.3478351 20,10 C20,15.5228475 15.5228475,20 10,20 C4.4771525,20 0,15.5228475 0,10 C0,4.4771525 4.4771525,0 10,0 Z M10,2 C5.581722,2 2,5.581722 2,10 C2,14.418278 5.581722,18 10,18 C14.416374,17.9954068 17.9954068,14.416374 18,10 C18,5.581722 14.418278,2 10,2 Z M10.7183333,13.1083333 L10.7183333,15 L8.82666667,15 L8.82666667,13.1083333 L10.7183333,13.1083333 Z M10.1016667,5 C12.055,5 13.3333333,5.92 13.3333333,7.76166667 C13.3333333,9.60333333 11.955,10 11.065,10.375 C10.4483333,10.6433333 10.195,10.9333333 10.22,11.375 C10.2298887,11.6262337 10.2679038,11.8755677 10.3333333,12.1183333 L10.3333333,12.1183333 L8.98166667,12.1183333 C8.80367628,11.7529226 8.69677844,11.3570047 8.66666667,10.9516667 C8.66666667,9.65333333 9.5,9.38833333 10.29,9.02333333 C10.82,8.775 11.525,8.455 11.525,7.775 C11.525,6.84166667 10.78,6.64 10.1,6.64 C9.07666667,6.64 8.55833333,6.98 8.43333333,8.05166667 L8.43333333,8.05166667 L6.66666667,7.875 C6.83333333,6.11 7.79333333,5 10.1016667,5 Z" id="path-1"></path>
    </defs>
    <g id="light-/-FAQ" stroke="none" stroke-width="1" fill="none" fill-rule="evenodd">
        <g id="FAQ" transform="translate(2.000000, 2.000000)">
            <rect id="Rectangle-path" fill="#FFFFFF" fill-rule="nonzero" opacity="0" x="0" y="0" width="20" height="20"></rect>
            <mask id="mask-2" fill="white">
                <use xlink:href="#path-1"></use>
            </mask>
            <use id="Mask" fill="#FFFFFF" xlink:href="#path-1"></use>
        </g>
    </g>
</svg>