<?xml version="1.0" encoding="UTF-8"?>
<svg width="24px" height="24px" viewBox="0 0 24 24" version="1.1" xmlns="http://www.w3.org/2000/svg" xmlns:xlink="http://www.w3.org/1999/xlink">
    <!-- Generator: Sketch 59.1 (86144) - https://sketch.com -->
    <title>light / Heart</title>
    <desc>Created with Sketch.</desc>
    <defs>
        <path d="M3.71339791,2.66681493 C5.44701608,2.20738527 7.29400506,2.71251492 8.55200534,3.99011686 L8.55200534,3.99011686 L10.0149686,5.45221823 L11.4762676,3.99178023 C12.4126702,3.05577081 13.6827999,2.52991286 15.0071853,2.52991286 C16.3315707,2.52991286 17.6017004,3.05577081 18.5381029,3.99178023 C20.487299,5.94041629 20.487299,9.09915553 18.5381029,11.0477916 C15.7137017,13.8721922 10.0149686,17.5 10.0149686,17.5 C10.0149686,17.5 4.3162356,13.8721922 1.49183433,11.0477916 C0.213182727,9.79083367 -0.29268005,7.945052 0.16661181,6.21234699 C0.62590367,4.47964198 1.97977975,3.12624459 3.71339791,2.66681493 Z M15.7941899,4.60856759 C14.7540419,4.33282787 13.6458256,4.63581718 12.8909647,5.40231716 L12.8909647,5.40231716 L11.4280014,6.86441852 L10.0149686,8.27495545 L8.60360017,6.86441852 L7.14063687,5.40231716 C6.38369218,4.64581841 5.28042125,4.35037202 4.24641555,4.62726977 C3.21240986,4.90416751 2.40475948,5.71134205 2.12769849,6.74473854 C1.85063751,7.77813503 2.14625808,8.88075595 2.90320279,9.63725467 C4.83551268,11.5684261 8.27405895,13.9487072 10.0149686,15.1130655 C11.7575427,13.9487072 15.2027463,11.5601092 17.1250701,9.63725467 L17.1250701,9.63725467 C17.8939828,8.88313976 18.1975861,7.77569553 17.9220925,6.73605207 C17.6465988,5.69640862 16.8343379,4.88430731 15.7941899,4.60856759 Z M5,6.5 C5.55228475,6.5 6,6.94771525 6,7.5 C6,8.05228475 5.55228475,8.5 5,8.5 C4.44771525,8.5 4,8.05228475 4,7.5 C4,6.94771525 4.44771525,6.5 5,6.5 Z" id="path-1"></path>
    </defs>
    <g id="light-/-Heart" stroke="none" stroke-width="1" fill="none" fill-rule="evenodd">
        <g id="Heart" transform="translate(2.000000, 2.000000)">
            <rect id="Rectangle-path" fill="#FFFFFF" fill-rule="nonzero" opacity="0" x="0" y="0" width="20" height="20"></rect>
            <mask id="mask-2" fill="white">
                <use xlink:href="#path-1"></use>
            </mask>
            <use id="Mask" fill="#FFFFFF" xlink:href="#path-1"></use>
        </g>
    </g>
</svg>