<?xml version="1.0" encoding="UTF-8"?>
<svg width="24px" height="24px" viewBox="0 0 24 24" version="1.1" xmlns="http://www.w3.org/2000/svg" xmlns:xlink="http://www.w3.org/1999/xlink">
    <!-- Generator: Sketch 59.1 (86144) - https://sketch.com -->
    <title>light / Kids</title>
    <desc>Created with Sketch.</desc>
    <defs>
        <path d="M14,0 L6,0 L0,2 L0,9 L3,9 L3,16 L7,20 L13,20 L17,16 L17,9 L20,9 L20,2 L14,0 Z M14,2.10833333 L18,3.44166667 L18,7 L15,7 L15,15.1666667 L12.1666667,18 L7.83333333,18 L5,15.1666667 L5,7 L2,7 L2,3.44166667 L6,2.10833333 C6,4.31747233 7.790861,6.10833333 10,6.10833333 C12.209139,6.10833333 14,4.31747233 14,2.10833333 Z M10,12 C9.44771525,12 9,12.4477153 9,13 C9,13.5522847 9.44771525,14 10,14 C10.5522847,14 11,13.5522847 11,13 C11,12.4477153 10.5522847,12 10,12 Z M10,8 C9.44771525,8 9,8.44771525 9,9 C9,9.55228475 9.44771525,10 10,10 C10.5522847,10 11,9.55228475 11,9 C11,8.44771525 10.5522847,8 10,8 Z M12,2 C12,3.1045695 11.1045695,4 10,4 C8.8954305,4 8,3.1045695 8,2 L12,2 Z" id="path-1"></path>
    </defs>
    <g id="light-/-Kids" stroke="none" stroke-width="1" fill="none" fill-rule="evenodd">
        <g id="Kids" transform="translate(2.000000, 2.000000)">
            <mask id="mask-2" fill="white">
                <use xlink:href="#path-1"></use>
            </mask>
            <use id="Mask" fill="#FFFFFF" xlink:href="#path-1"></use>
        </g>
    </g>
</svg>