<?xml version="1.0" encoding="UTF-8"?>
<svg width="24px" height="24px" viewBox="0 0 24 24" version="1.1" xmlns="http://www.w3.org/2000/svg" xmlns:xlink="http://www.w3.org/1999/xlink">
    <!-- Generator: Sketch 59.1 (86144) - https://sketch.com -->
    <title>light / News</title>
    <desc>Created with Sketch.</desc>
    <defs>
        <path d="M20,8.8817842e-16 L20,16.5 C20,18.4329966 18.4329966,20 16.5,20 L16.5,20 L3.5,20 C1.56700338,20 1.77635684e-15,18.4329966 1.77635684e-15,16.5 L1.77635684e-15,16.5 L1.77635684e-15,6 L5,6 L5,8.8817842e-16 L20,8.8817842e-16 Z M5,8 L2,8 L2,16.5 C2,17.3284271 2.67157288,18 3.5,18 C4.32842712,18 5,17.3284271 5,16.5 L5,16.5 L5,8 Z M18,2 L7,2 L7,16.5 C6.9991456,17.0193811 6.88182225,17.5319589 6.65666667,18 L6.65666667,18 L16.5,18 C17.3284271,18 18,17.3284271 18,16.5 L18,16.5 L18,2 Z M16,12 L16,14 L9,14 L9,12 L16,12 Z M16,8 L16,10 L9,10 L9,8 L16,8 Z M16,4 L16,6 L9,6 L9,4 L16,4 Z" id="path-1"></path>
    </defs>
    <g id="light-/-News" stroke="none" stroke-width="1" fill="none" fill-rule="evenodd">
        <g id="News" transform="translate(2.000000, 2.000000)">
            <rect id="Rectangle-path" fill="#FFFFFF" fill-rule="nonzero" opacity="0" x="0" y="0" width="20" height="20"></rect>
            <mask id="mask-2" fill="white">
                <use xlink:href="#path-1"></use>
            </mask>
            <use id="Mask" fill="#FFFFFF" xlink:href="#path-1"></use>
        </g>
    </g>
</svg>