<?xml version="1.0" encoding="UTF-8"?>
<svg width="24px" height="24px" viewBox="0 0 24 24" version="1.1" xmlns="http://www.w3.org/2000/svg" xmlns:xlink="http://www.w3.org/1999/xlink">
    <!-- Generator: Sketch 59.1 (86144) - https://sketch.com -->
    <title>light / PageArrow</title>
    <desc>Created with Sketch.</desc>
    <defs>
        <path d="M2,2 L8,2 L8,8 L16,8 L16,6 L10,0 L0,0 L0,20 L16,20 L16,18 L2,18 L2,2 Z M16,10 L20,13 L16,16 L16,10 Z M9,12 C9.55228475,12 10,12.4477153 10,13 C10,13.5522847 9.55228475,14 9,14 C8.44771525,14 8,13.5522847 8,13 C8,12.4477153 8.44771525,12 9,12 Z M13,12 C13.5522847,12 14,12.4477153 14,13 C14,13.5522847 13.5522847,14 13,14 C12.4477153,14 12,13.5522847 12,13 C12,12.4477153 12.4477153,12 13,12 Z M10,2.83333333 L13.1666667,6 L10,6 L10,2.83333333 Z" id="path-1"></path>
    </defs>
    <g id="light-/-PageArrow" stroke="none" stroke-width="1" fill="none" fill-rule="evenodd">
        <g id="PageArrow" transform="translate(2.000000, 2.000000)">
            <rect id="Rectangle-path" fill="#FFFFFF" fill-rule="nonzero" opacity="0" x="0" y="0" width="20" height="20"></rect>
            <mask id="mask-2" fill="white">
                <use xlink:href="#path-1"></use>
            </mask>
            <use id="Mask" fill="#FFFFFF" xlink:href="#path-1"></use>
        </g>
    </g>
</svg>