<?xml version="1.0" encoding="UTF-8"?>
<svg width="24px" height="24px" viewBox="0 0 24 24" version="1.1" xmlns="http://www.w3.org/2000/svg" xmlns:xlink="http://www.w3.org/1999/xlink">
    <!-- Generator: Sketch 59.1 (86144) - https://sketch.com -->
    <title>light / PageLines</title>
    <desc>Created with Sketch.</desc>
    <defs>
        <path d="M12,0 L18,6 L18,20 L2,20 L2,0 L12,0 Z M10,2 L4,2 L4,18 L16,18 L16,8 L10,8 L10,2 Z M12,14 L12,16 L6,16 L6,14 L12,14 Z M14,10 L14,12 L6,12 L6,10 L14,10 Z M8,6 L8,8 L6,8 L6,6 L8,6 Z M12,2.83333333 L12,6 L15.1666667,6 L12,2.83333333 Z" id="path-1"></path>
    </defs>
    <g id="light-/-PageLines" stroke="none" stroke-width="1" fill="none" fill-rule="evenodd">
        <g id="PageLines" transform="translate(2.000000, 2.000000)">
            <rect id="Rectangle-path" fill="#FFFFFF" fill-rule="nonzero" opacity="0" x="0" y="0" width="20" height="20"></rect>
            <mask id="mask-2" fill="white">
                <use xlink:href="#path-1"></use>
            </mask>
            <use id="Mask" fill="#FFFFFF" xlink:href="#path-1"></use>
        </g>
    </g>
</svg>