<?xml version="1.0" encoding="UTF-8"?>
<svg width="24px" height="24px" viewBox="0 0 24 24" version="1.1" xmlns="http://www.w3.org/2000/svg" xmlns:xlink="http://www.w3.org/1999/xlink">
    <!-- Generator: Sketch 59.1 (86144) - https://sketch.com -->
    <title>light / PageStyle</title>
    <desc>Created with Sketch.</desc>
    <defs>
        <path d="M12,0 L2,0 L2,20 L18,20 L18,6 L12,0 Z M12,2.83333333 L15.1666667,6 L12,6 L12,2.83333333 Z M10,2 L10,8 L16,8 L16,18 L4,18 L4,2 L10,2 Z M10.8333333,10 L9.16666667,10 L7.09833333,16 L8.59833333,16 L8.91,14.99 L11.0766667,14.99 L11.3966667,16 L12.8966667,16 L10.8333333,10 Z M10,11.45 L10.7283333,13.85 L9.26166667,13.85 L10,11.45 Z" id="path-1"></path>
    </defs>
    <g id="light-/-PageStyle" stroke="none" stroke-width="1" fill="none" fill-rule="evenodd">
        <g id="PageStyle" transform="translate(2.000000, 2.000000)">
            <rect id="Rectangle-path" fill="#FFFFFF" fill-rule="nonzero" opacity="0" x="0" y="0" width="20" height="20"></rect>
            <mask id="mask-2" fill="white">
                <use xlink:href="#path-1"></use>
            </mask>
            <use id="Mask" fill="#FFFFFF" xlink:href="#path-1"></use>
        </g>
    </g>
</svg>