<?xml version="1.0" encoding="UTF-8"?>
<svg width="24px" height="24px" viewBox="0 0 24 24" version="1.1" xmlns="http://www.w3.org/2000/svg" xmlns:xlink="http://www.w3.org/1999/xlink">
    <!-- Generator: Sketch 59.1 (86144) - https://sketch.com -->
    <title>light / Pin</title>
    <desc>Created with Sketch.</desc>
    <defs>
        <path d="M2.13188232,6.55934556 C2.87714931,2.48914767 6.60316423,-0.34099904 10.7238837,0.0331708513 C14.8446031,0.407340743 18,3.86233124 18,8.00020364 C18,11.5917017 15.6066666,14.7430209 12.1470514,15.7067395 L12.1470514,15.7067395 L10.0005258,20 L7.85400028,15.7067395 C3.86807408,14.5964104 1.38661533,10.6295435 2.13188232,6.55934556 Z M10.0005258,2.00030546 C6.68703516,2.00030546 4.00092023,4.68655137 4.00092023,8.00020364 C4.00092023,11.3138559 6.68703516,14.0001018 10.0005258,14.0001018 C11.5917202,14.0001018 13.1177434,13.3679715 14.2428877,12.2427723 C15.368032,11.1175732 16.0001315,9.59147557 16.0001315,8.00020364 C16.0001315,4.68655137 13.3140165,2.00030546 10.0005258,2.00030546 Z M10,7.05882353 C10.5522847,7.05882353 11,7.51030109 11,8.06722689 C11,8.62415269 10.5522847,9.07563025 10,9.07563025 C9.44771525,9.07563025 9,8.62415269 9,8.06722689 C9,7.51030109 9.44771525,7.05882353 10,7.05882353 Z" id="path-1"></path>
    </defs>
    <g id="light-/-Pin" stroke="none" stroke-width="1" fill="none" fill-rule="evenodd">
        <g id="Pin" transform="translate(2.000000, 2.000000)">
            <rect id="Rectangle-path" fill="#FFFFFF" fill-rule="nonzero" opacity="0" x="0" y="0" width="20" height="20"></rect>
            <mask id="mask-2" fill="white">
                <use xlink:href="#path-1"></use>
            </mask>
            <use id="Mask" fill="#FFFFFF" xlink:href="#path-1"></use>
        </g>
    </g>
</svg>