<?xml version="1.0" encoding="UTF-8"?>
<svg width="24px" height="24px" viewBox="0 0 24 24" version="1.1" xmlns="http://www.w3.org/2000/svg" xmlns:xlink="http://www.w3.org/1999/xlink">
    <!-- Generator: Sketch 59.1 (86144) - https://sketch.com -->
    <title>light / QR</title>
    <desc>Created with Sketch.</desc>
    <defs>
        <path d="M6,0 L0,0 L0,6 L6,6 L6,0 Z M6,14 L6,20 L0,20 L0,14 L6,14 Z M10,18 L10,20 L8,20 L8,18 L10,18 Z M18,18 L18,20 L14,20 L14,18 L18,18 Z M4,16 L2,16 L2,18 L4,18 L4,16 Z M14,12 L14,14 L18,14 L18,16 L14,16 L14,18 L10,18 L10,16 L12,16 L12,14 L8,14 L8,12 L14,12 Z M20,16 L20,18 L18,18 L18,16 L20,16 Z M20,8 L20,12 L14,12 L14,10 L16,10 L16,8 L20,8 Z M10,10 L8,10 L8,12 L2,12 L2,10 L0,10 L0,8 L4,8 L4,10 L6,10 L6,8 L10,8 L10,6 L8,6 L8,2 L10,2 L10,4 L12,4 L12,8 L14,8 L14,10 L12,10 L12,8 L10,8 L10,10 Z M20,0 L20,6 L14,6 L14,0 L20,0 Z M4,2 L4,4 L2,4 L2,2 L4,2 Z M18,2 L16,2 L16,4 L18,4 L18,2 Z M12,0 L12,2 L10,2 L10,0 L12,0 Z" id="path-1"></path>
    </defs>
    <g id="light-/-QR" stroke="none" stroke-width="1" fill="none" fill-rule="evenodd">
        <g id="QR" transform="translate(2.000000, 2.000000)">
            <rect id="Rectangle-path" fill="#FFFFFF" fill-rule="nonzero" opacity="0" x="0" y="0" width="20" height="20"></rect>
            <mask id="mask-2" fill="white">
                <use xlink:href="#path-1"></use>
            </mask>
            <use id="Mask" fill="#FFFFFF" xlink:href="#path-1"></use>
        </g>
    </g>
</svg>