<?xml version="1.0" encoding="UTF-8"?>
<svg width="24px" height="24px" viewBox="0 0 24 24" version="1.1" xmlns="http://www.w3.org/2000/svg" xmlns:xlink="http://www.w3.org/1999/xlink">
    <!-- Generator: Sketch 59.1 (86144) - https://sketch.com -->
    <title>light / Van</title>
    <desc>Created with Sketch.</desc>
    <defs>
        <path d="M16,8 L14,2 L0,2 L0,16 L2.175,16 C2.60160523,17.1936517 3.73240523,17.990359 5,17.990359 C6.26759477,17.990359 7.39839477,17.1936517 7.825,16 L12.175,16 C12.6016052,17.1936517 13.7324052,17.990359 15,17.990359 C16.2675948,17.990359 17.3983948,17.1936517 17.825,16 L20,16 L20,8 L16,8 Z M4,15 C4,14.4477153 4.44771525,14 5,14 C5.55228475,14 6,14.4477153 6,15 C6,15.5522847 5.55228475,16 5,16 C4.44771525,16 4,15.5522847 4,15 Z M15,14 C15.5522847,14 16,14.4477153 16,15 C16,15.5522847 15.5522847,16 15,16 C14.4477153,16 14,15.5522847 14,15 C14,14.4477153 14.4477153,14 15,14 Z M12.5583333,4 L14.5583333,10 L18,10 L18,14 L17.825,14 C17.3983948,12.8063483 16.2675948,12.009641 15,12.009641 C13.7324052,12.009641 12.6016052,12.8063483 12.175,14 L7.825,14 C7.39839477,12.8063483 6.26759477,12.009641 5,12.009641 C3.73240523,12.009641 2.60160523,12.8063483 2.175,14 L2,14 L2,4 L12.5583333,4 Z M5,8 C4.44771525,8 4,8.44771525 4,9 C4,9.55228475 4.44771525,10 5,10 C5.55228475,10 6,9.55228475 6,9 C6,8.44771525 5.55228475,8 5,8 Z" id="path-1"></path>
    </defs>
    <g id="light-/-Van" stroke="none" stroke-width="1" fill="none" fill-rule="evenodd">
        <g id="Van" transform="translate(2.000000, 2.000000)">
            <rect id="Rectangle-path" fill="#FFFFFF" fill-rule="nonzero" opacity="0" x="0" y="0" width="20" height="20"></rect>
            <mask id="mask-2" fill="white">
                <use xlink:href="#path-1"></use>
            </mask>
            <use id="Mask" fill="#FFFFFF" xlink:href="#path-1"></use>
        </g>
    </g>
</svg>