<?xml version="1.0" encoding="UTF-8"?>
<svg width="24px" height="24px" viewBox="0 0 24 24" version="1.1" xmlns="http://www.w3.org/2000/svg" xmlns:xlink="http://www.w3.org/1999/xlink">
    <!-- Generator: Sketch 59.1 (86144) - https://sketch.com -->
    <title>dark / Attach</title>
    <desc>Created with Sketch.</desc>
    <defs>
        <path d="M17.95,12.6216667 C20.6484991,9.88421863 20.6347693,5.48290784 17.919244,2.76234875 C15.2037188,0.0417896604 10.802441,0.0199086251 8.06,2.71333333 L1.465,9.13666667 C0.527134923,10.0743729 0.000234453171,11.3462708 0.000234453171,12.6725 C0.000234453171,13.9987292 0.527134923,15.2706271 1.465,16.2083333 L1.465,16.2083333 C3.41378389,18.157462 6.5723703,18.1619349 8.52666667,16.2183333 L15.1216667,9.79333333 C16.2800905,8.62164811 16.27676,6.73497634 15.1142067,5.5673883 C13.9516533,4.39980027 12.0650135,4.38831685 10.8883333,5.54166667 L10.8883333,5.54166667 L4.30166667,11.955 L5.69666667,13.3883333 L12.2833333,6.97333333 L12.2933333,6.96333333 C12.6818925,6.5735663 13.3123672,6.57103374 13.7040451,6.95766662 C14.095723,7.34429951 14.1013639,7.97475405 13.7166667,8.36833333 L7.12166667,14.7933333 C6.5590294,15.3561544 5.7958192,15.6723594 5,15.6723594 C4.2041808,15.6723594 3.4409706,15.3561544 2.87833333,14.7933333 L2.87833333,14.7933333 C1.71018223,13.6255878 1.70571215,11.7332513 2.86833333,10.56 L9.465,4.13666667 C11.4259977,2.24085965 14.5445569,2.26647869 16.4741438,4.19424694 C18.4037307,6.12201519 18.4322904,9.24054889 16.5383333,11.2033333 L9.95833333,17.6116667 L11.3533333,19.045 L17.9383333,12.63" id="path-1"></path>
    </defs>
    <g id="dark-/-Attach" stroke="none" stroke-width="1" fill="none" fill-rule="evenodd">
        <g id="Attach" transform="translate(2.000000, 2.000000)">
            <rect id="Rectangle-path" fill="#FFFFFF" fill-rule="nonzero" opacity="0" x="0" y="0" width="20" height="20"></rect>
            <mask id="mask-2" fill="white">
                <use xlink:href="#path-1"></use>
            </mask>
            <use id="Mask" fill="#222222" xlink:href="#path-1"></use>
        </g>
    </g>
</svg>