<?xml version="1.0" encoding="UTF-8"?>
<svg width="24px" height="24px" viewBox="0 0 24 24" version="1.1" xmlns="http://www.w3.org/2000/svg" xmlns:xlink="http://www.w3.org/1999/xlink">
    <!-- Generator: Sketch 59.1 (86144) - https://sketch.com -->
    <title>dark / Bell</title>
    <desc>Created with Sketch.</desc>
    <defs>
        <path d="M17,14.0000001 L17,9.0000001 C17,5.13400679 13.8659932,2.0000001 10,2.0000001 C6.13400679,2.0000001 3,5.13400679 3,9.0000001 L3,14.0000001 L0,14.0000001 L0,16.0000001 L20,16.0000001 L20,14.0000001 L17,14.0000001 Z M9,18 C9,19.1045695 8.1045695,20 7,20 C5.8954305,20 5,19.1045695 5,18 L5,18 Z M10,4 C12.7614237,4 15,6.23857625 15,9 L15,14 L5,14 L5,9 C5,6.23857625 7.23857625,4 10,4 Z M10,-1.33226763e-15 C10.5522847,-1.33226763e-15 11,0.44771525 11,1 C11,1.55228475 10.5522847,2 10,2 C9.44771525,2 9,1.55228475 9,1 C9,0.44771525 9.44771525,-1.33226763e-15 10,-1.33226763e-15 Z" id="path-1"></path>
    </defs>
    <g id="dark-/-Bell" stroke="none" stroke-width="1" fill="none" fill-rule="evenodd">
        <g id="Bell" transform="translate(2.000000, 2.000000)">
            <rect id="Rectangle-path" fill="#FFFFFF" fill-rule="nonzero" opacity="0" x="0" y="0" width="20" height="20"></rect>
            <mask id="mask-2" fill="white">
                <use xlink:href="#path-1"></use>
            </mask>
            <use id="Mask" fill="#222222" xlink:href="#path-1"></use>
        </g>
    </g>
</svg>