<?xml version="1.0" encoding="UTF-8"?>
<svg width="24px" height="24px" viewBox="0 0 24 24" version="1.1" xmlns="http://www.w3.org/2000/svg" xmlns:xlink="http://www.w3.org/1999/xlink">
    <!-- Generator: Sketch 59.1 (86144) - https://sketch.com -->
    <title>dark / Bowtie</title>
    <desc>Created with Sketch.</desc>
    <defs>
        <path d="M12.1666667,6.64166667 C10.8483184,5.78811199 9.15168162,5.78811199 7.83333333,6.64166667 L0,2 L0,18 L7.83333333,13.3583333 C9.15168162,14.211888 10.8483184,14.211888 12.1666667,13.3583333 L20,18 L20,2 L12.1666667,6.64166667 Z M2,14.49 L2,5.51 L6.455,8.15 C5.84802028,9.30865272 5.84802028,10.6913473 6.455,11.85 L2,14.49 Z M9,11.73 C8.13824633,11.2282939 7.78138746,10.1658786 8.1655328,9.24568248 C8.54967813,8.32548642 9.55600315,7.83214627 10.5186906,8.09207188 C11.481378,8.35199749 12.1026477,9.28478821 11.9714475,10.2732794 C11.8402472,11.2617707 10.9971602,12.0002006 10,12 C9.64874021,11.9993767 9.30383964,11.9062535 9,11.73 Z M18,14.49 L13.545,11.85 C14.1519797,10.6913473 14.1519797,9.30865272 13.545,8.15 L18,5.51 L18,14.49 Z" id="path-1"></path>
    </defs>
    <g id="dark-/-Bowtie" stroke="none" stroke-width="1" fill="none" fill-rule="evenodd">
        <g id="Bowtie" transform="translate(2.000000, 2.000000)">
            <rect id="Rectangle-path" fill="#FFFFFF" fill-rule="nonzero" opacity="0" x="0" y="0" width="20" height="20"></rect>
            <mask id="mask-2" fill="white">
                <use xlink:href="#path-1"></use>
            </mask>
            <use id="Mask" fill="#222222" xlink:href="#path-1"></use>
        </g>
    </g>
</svg>