<?xml version="1.0" encoding="UTF-8"?>
<svg width="24px" height="24px" viewBox="0 0 24 24" version="1.1" xmlns="http://www.w3.org/2000/svg" xmlns:xlink="http://www.w3.org/1999/xlink">
    <!-- Generator: Sketch 59.1 (86144) - https://sketch.com -->
    <title>dark / BoxReturn</title>
    <desc>Created with Sketch.</desc>
    <defs>
        <path d="M8,6 L0,10 L0,16 L8,20 L16,16 L16,10 L8,6 Z M8,8.23666667 L12.8616667,10.6666667 L8,13.0966667 L3.13833333,10.6666667 L8,8.23666667 Z M14,12.3333333 L14,14.7633333 L8,17.7633333 L2,14.7633333 L2,12.3333333 L8,15.3333333 L14,12.3333333 Z M14,0 L14,2 L15,2 C17.7614237,2 20,4.23857625 20,7 L20,7 L19.9938748,7.24766436 C19.920568,8.72829098 19.1927645,10.1054266 18,11 L18,11 L18,7 L17.9949073,6.82372721 C17.9036609,5.24891996 16.5976809,4 15,4 L15,4 L14,4 L14,6 L10,3 L14,0 Z" id="path-1"></path>
    </defs>
    <g id="dark-/-BoxReturn" stroke="none" stroke-width="1" fill="none" fill-rule="evenodd">
        <g id="BoxReturn" transform="translate(2.000000, 2.000000)">
            <rect id="Rectangle-path" fill="#FFFFFF" fill-rule="nonzero" opacity="0" x="0" y="0" width="20" height="20"></rect>
            <mask id="mask-2" fill="white">
                <use xlink:href="#path-1"></use>
            </mask>
            <use id="Mask" fill="#222222" xlink:href="#path-1"></use>
        </g>
    </g>
</svg>