<?xml version="1.0" encoding="UTF-8"?>
<svg width="24px" height="24px" viewBox="0 0 24 24" version="1.1" xmlns="http://www.w3.org/2000/svg" xmlns:xlink="http://www.w3.org/1999/xlink">
    <!-- Generator: Sketch 59.1 (86144) - https://sketch.com -->
    <title>dark / CalendarCheck</title>
    <desc>Created with Sketch.</desc>
    <defs>
        <path d="M7,0 L7,2 L13,2 L13,0 L15,0 L15,2 L20,2 L20,20 L0,20 L0,2 L5,2 L5,0 L7,0 Z M5,4 L2,4 L2,18 L18,18 L18,4 L15,4 L15,6 L13,6 L13,4 L7,4 L7,6 L5,6 L5,4 Z M12.1216667,9.17166667 L13.535,10.5866667 L9.29333333,14.8283333 L6.465,12 L7.87833333,10.5866667 L9.29333333,12 L12.1216667,9.17166667 Z" id="path-1"></path>
    </defs>
    <g id="dark-/-CalendarCheck" stroke="none" stroke-width="1" fill="none" fill-rule="evenodd">
        <g id="CalendarCheck" transform="translate(2.000000, 2.000000)">
            <rect id="Rectangle-path" fill="#FFFFFF" fill-rule="nonzero" opacity="0" x="0" y="0" width="20" height="20"></rect>
            <mask id="mask-2" fill="white">
                <use xlink:href="#path-1"></use>
            </mask>
            <use id="Mask" fill="#222222" xlink:href="#path-1"></use>
        </g>
    </g>
</svg>