<?xml version="1.0" encoding="UTF-8"?>
<svg width="24px" height="24px" viewBox="0 0 24 24" version="1.1" xmlns="http://www.w3.org/2000/svg" xmlns:xlink="http://www.w3.org/1999/xlink">
    <!-- Generator: Sketch 59.1 (86144) - https://sketch.com -->
    <title>dark / Controller</title>
    <desc>Created with Sketch.</desc>
    <defs>
        <path d="M8.49166667,2 C8.06506144,0.80634826 6.93426144,0.00964102532 5.66666667,0.00964102532 C4.3990719,0.00964102532 3.26827189,0.80634826 2.84166667,2 L0,2 L0,4 L2.84166667,4 C3.26827189,5.19365174 4.3990719,5.99035897 5.66666667,5.99035897 C6.93426144,5.99035897 8.06506144,5.19365174 8.49166667,4 L20,4 L20,2 L8.49166667,2 Z M5.66666667,14 C6.93675766,14.0014512 8.06830355,14.8025457 8.49166667,16 L8.49166667,16 L20,16 L20,18 L8.49166667,18 C8.06506144,19.1936517 6.93426144,19.990359 5.66666667,19.990359 C4.3990719,19.990359 3.26827189,19.1936517 2.84166667,18 L2.84166667,18 L0,18 L0,16 L2.84166667,16 C3.26502978,14.8025457 4.39657567,14.0014512 5.66666667,14 Z M5.66666667,16 C5.11438192,16 4.66666667,16.4477153 4.66666667,17 C4.66666667,17.5522847 5.11438192,18 5.66666667,18 C6.21895142,18 6.66666667,17.5522847 6.66666667,17 C6.66666667,16.4477153 6.21895142,16 5.66666667,16 Z M14,7 C15.270091,7.00145121 16.4016369,7.80254565 16.825,9 L16.825,9 L20,9 L20,11 L16.825,11 C16.3983948,12.1936517 15.2675948,12.990359 14,12.990359 C12.7324052,12.990359 11.6016052,12.1936517 11.175,11 L11.175,11 L0,11 L0,9 L11.175,9 C11.5983631,7.80254565 12.729909,7.00145121 14,7 Z M14,9 C13.4477153,9 13,9.44771525 13,10 C13,10.5522847 13.4477153,11 14,11 C14.5522847,11 15,10.5522847 15,10 C15,9.44771525 14.5522847,9 14,9 Z M5.66666667,2 C6.21895142,2 6.66666667,2.44771525 6.66666667,3 C6.66666667,3.55228475 6.21895142,4 5.66666667,4 C5.11438192,4 4.66666667,3.55228475 4.66666667,3 C4.66666667,2.44771525 5.11438192,2 5.66666667,2 Z" id="path-1"></path>
    </defs>
    <g id="dark-/-Controller" stroke="none" stroke-width="1" fill="none" fill-rule="evenodd">
        <g id="Controller" transform="translate(2.000000, 2.000000)">
            <rect id="Rectangle-path" fill="#FFFFFF" fill-rule="nonzero" opacity="0" x="0" y="0" width="20" height="20"></rect>
            <mask id="mask-2" fill="white">
                <use xlink:href="#path-1"></use>
            </mask>
            <use id="Mask" fill="#222222" xlink:href="#path-1"></use>
        </g>
    </g>
</svg>