<?xml version="1.0" encoding="UTF-8"?>
<svg width="24px" height="24px" viewBox="0 0 24 24" version="1.1" xmlns="http://www.w3.org/2000/svg" xmlns:xlink="http://www.w3.org/1999/xlink">
    <!-- Generator: Sketch 59.1 (86144) - https://sketch.com -->
    <title>dark / Creditcard</title>
    <desc>Created with Sketch.</desc>
    <defs>
        <path d="M18,2 L2,2 C0.8954305,2 0,2.8954305 0,4 L0,16 C0,17.1045695 0.8954305,18 2,18 L18,18 C19.1045695,18 20,17.1045695 20,16 L20,4 C20,2.8954305 19.1045695,2 18,2 Z M2,4 C2,4 2,4 2,4 L18,4 L18,8 L2,8 L2,4 Z M18,10 L18,16 L2,16 L2,10 L18,10 Z M16,12 L12,12 L12,14 L16,14 L16,12 Z" id="path-1"></path>
    </defs>
    <g id="dark-/-Creditcard" stroke="none" stroke-width="1" fill="none" fill-rule="evenodd">
        <g id="Creditcard" transform="translate(2.000000, 2.000000)">
            <rect id="Rectangle-path" fill="#FFFFFF" fill-rule="nonzero" opacity="0" x="0" y="0" width="20" height="20"></rect>
            <mask id="mask-2" fill="white">
                <use xlink:href="#path-1"></use>
            </mask>
            <use id="Mask" fill="#222222" xlink:href="#path-1"></use>
        </g>
    </g>
</svg>