<?xml version="1.0" encoding="UTF-8"?>
<svg width="24px" height="24px" viewBox="0 0 24 24" version="1.1" xmlns="http://www.w3.org/2000/svg" xmlns:xlink="http://www.w3.org/1999/xlink">
    <!-- Generator: Sketch 59.1 (86144) - https://sketch.com -->
    <title>dark / Eye</title>
    <desc>Created with Sketch.</desc>
    <defs>
        <path d="M10,4 L10,4 C5.88,4 2.235,6.36833333 0,10 C2.23666667,13.6316667 5.88,16 10,16 C14.12,16 17.765,13.6316667 20,10 C17.765,6.36833333 14.12,4 10,4 Z M10,6 L10,6 C12.209139,6 14,7.790861 14,10 C14,12.209139 12.209139,14 10,14 C7.790861,14 6,12.209139 6,10 C6,7.790861 7.790861,6 10,6 Z M2.425,10 C2.97706882,9.2800498 3.61388128,8.62924761 4.32166667,8.06166667 C3.89270668,9.31829001 3.89270668,10.68171 4.32166667,11.9383333 C3.61389217,11.3707404 2.97708108,10.7199396 2.425,10 L2.425,10 Z M15.6783333,8.06166667 C16.3861078,8.62925963 17.0229189,9.28006042 17.575,10 C17.0229189,10.7199396 16.3861078,11.3707404 15.6783333,11.9383333 C16.1072933,10.68171 16.1072933,9.31829001 15.6783333,8.06166667 Z M10,9 C10.5522847,9 11,9.44771525 11,10 C11,10.5522847 10.5522847,11 10,11 C9.44771525,11 9,10.5522847 9,10 C9,9.44771525 9.44771525,9 10,9 Z" id="path-1"></path>
    </defs>
    <g id="dark-/-Eye" stroke="none" stroke-width="1" fill="none" fill-rule="evenodd">
        <g id="Eye" transform="translate(2.000000, 2.000000)">
            <rect id="Rectangle-path" fill="#FFFFFF" fill-rule="nonzero" opacity="0" x="0" y="0" width="20" height="20"></rect>
            <mask id="mask-2" fill="white">
                <use xlink:href="#path-1"></use>
            </mask>
            <use id="Mask" fill="#222222" xlink:href="#path-1"></use>
        </g>
    </g>
</svg>