<?xml version="1.0" encoding="UTF-8"?>
<svg width="24px" height="24px" viewBox="0 0 24 24" version="1.1" xmlns="http://www.w3.org/2000/svg" xmlns:xlink="http://www.w3.org/1999/xlink">
    <!-- Generator: Sketch 59.1 (86144) - https://sketch.com -->
    <title>dark / EyeCrossed</title>
    <desc>Created with Sketch.</desc>
    <defs>
        <path d="M16.585,2 L18,3.415 L15.7466667,5.66666667 C17.4819925,6.76087324 18.9383158,8.24458824 20,10 C17.765,13.6316667 14.12,16 10,16 C8.67898938,15.9995419 7.36955651,15.7537053 6.13833333,15.275 L6.13833333,15.275 L3.415,18 L2,16.585 L16.585,2 Z M14.2866667,7.12666667 L7.72,13.6933333 C8.46290033,13.8968887 9.22971713,14 10,14 C11.6507103,13.9984286 13.2677491,13.5329525 14.6666667,12.6566667 C15.7893612,11.9550241 16.7748853,11.0547804 17.575,10 C16.772907,8.94460858 15.7850829,8.04432746 14.66,7.34333333 C14.5366667,7.26666667 14.4116667,7.19666667 14.2866667,7.12666667 L14.2866667,7.12666667 Z M10,4 C10.5457776,4.00036096 11.0907187,4.04270812 11.63,4.12666667 L11.63,4.12666667 L9.74666667,6.01 C8.18337376,6.05537749 6.66024591,6.51553696 5.33333333,7.34333333 C4.21061622,8.04494613 3.22508716,8.94519445 2.425,10 C2.90495762,10.6250586 3.44841761,11.1986797 4.04666667,11.7116667 L4.04666667,11.7116667 L2.62666667,13.13 C1.59969503,12.2237137 0.714310812,11.1686683 0,10 C2.23666667,6.36833333 5.88,4 10,4 Z" id="path-1"></path>
    </defs>
    <g id="dark-/-EyeCrossed" stroke="none" stroke-width="1" fill="none" fill-rule="evenodd">
        <g id="EyeCrossed" transform="translate(2.000000, 2.000000)">
            <rect id="Rectangle-path" fill="#FFFFFF" fill-rule="nonzero" opacity="0" x="0" y="0" width="20" height="20"></rect>
            <mask id="mask-2" fill="white">
                <use xlink:href="#path-1"></use>
            </mask>
            <use id="Mask" fill="#222222" xlink:href="#path-1"></use>
        </g>
    </g>
</svg>