<?xml version="1.0" encoding="UTF-8"?>
<svg width="24px" height="24px" viewBox="0 0 24 24" version="1.1" xmlns="http://www.w3.org/2000/svg" xmlns:xlink="http://www.w3.org/1999/xlink">
    <!-- Generator: Sketch 59.1 (86144) - https://sketch.com -->
    <title>dark / Globe</title>
    <desc>Created with Sketch.</desc>
    <defs>
        <path d="M10,0 C4.4771525,0 0,4.4771525 0,10 C0,15.5228475 4.4771525,20 10,20 C15.5228475,20 20,15.5228475 20,10 C20,7.3478351 18.9464316,4.80429597 17.0710678,2.92893219 C15.195704,1.0535684 12.6521649,0 10,0 Z M16.9233333,6 L14.125,6 C13.9085853,4.82183765 13.5387727,3.67709956 13.025,2.595 C14.6639868,3.26968567 16.0343584,4.46663697 16.9233333,6 L16.9233333,6 Z M12.5,10 C12.499865,10.6679547 12.4659328,11.3354748 12.3983333,12 L7.60166667,12 C7.46604454,10.6701154 7.46604454,9.32988458 7.60166667,8 L12.3983333,8 C12.4659328,8.66452524 12.499865,9.33204531 12.5,10 L12.5,10 Z M10,18 C9.84833333,18 9.24333333,17.585 8.64166667,16.25 C8.32619305,15.5261264 8.08441772,14.7723234 7.92,14 L12.0866667,14 C11.9222489,14.7723234 11.6804736,15.5261264 11.365,16.25 C10.7566667,17.585 10.1516667,18 10,18 Z M7.92,6 C8.08441772,5.2276766 8.32619305,4.47387362 8.64166667,3.75 C9.24166667,2.41666667 9.84666667,2 10,2 C10.1533333,2 10.7566667,2.415 11.3583333,3.75 C11.6738069,4.47387362 11.9155823,5.2276766 12.08,6 L7.92,6 Z M6.975,2.595 C6.4612273,3.67709956 6.0914147,4.82183765 5.875,6 L3.07666667,6 C3.9656416,4.46663697 5.33601316,3.26968567 6.975,2.595 L6.975,2.595 Z M2.25333333,8 L5.58666667,8 C5.52833333,8.64666667 5.49666667,9.315 5.49666667,10 C5.49666667,10.685 5.52833333,11.3533333 5.58666667,12 L2.25333333,12 C1.91578426,10.6880303 1.91578426,9.3119697 2.25333333,8 L2.25333333,8 Z M3.07666667,14 L5.87666667,14 C6.09308137,15.1781624 6.46289396,16.3229004 6.97666667,17.405 C5.33706155,16.7306238 3.96606775,15.5336407 3.07666667,14 L3.07666667,14 Z M13.025,17.405 C13.5387727,16.3229004 13.9085853,15.1781624 14.125,14 L16.925,14 C16.0355989,15.5336407 14.6646051,16.7306238 13.025,17.405 L13.025,17.405 Z M17.7466667,12 L14.4133333,12 C14.4716667,11.3533333 14.5033333,10.685 14.5033333,10 C14.5033333,9.315 14.4716667,8.64666667 14.4133333,8 L17.7466667,8 C18.0842157,9.3119697 18.0842157,10.6880303 17.7466667,12 L17.7466667,12 Z" id="path-1"></path>
    </defs>
    <g id="dark-/-Globe" stroke="none" stroke-width="1" fill="none" fill-rule="evenodd">
        <g id="Globe" transform="translate(2.000000, 2.000000)">
            <rect id="Rectangle-path" fill="#FFFFFF" fill-rule="nonzero" opacity="0" x="0" y="0" width="20" height="20"></rect>
            <mask id="mask-2" fill="white">
                <use xlink:href="#path-1"></use>
            </mask>
            <use id="Mask" fill="#222222" xlink:href="#path-1"></use>
        </g>
    </g>
</svg>