<?xml version="1.0" encoding="UTF-8"?>
<svg width="24px" height="24px" viewBox="0 0 24 24" version="1.1" xmlns="http://www.w3.org/2000/svg" xmlns:xlink="http://www.w3.org/1999/xlink">
    <!-- Generator: Sketch 59.1 (86144) - https://sketch.com -->
    <title>dark / Global</title>
    <desc>Created with Sketch.</desc>
    <defs>
        <path d="M2.77024793,12.892562 C3.57706051,14.8735944 5.14569806,16.4475918 7.12396694,17.261157 C6.54545455,16.092562 6.10578512,14.5900826 5.8661157,12.892562 L5.8661157,12.892562 L7.87272727,12.892562 C8.03275001,14.0016691 8.33668883,15.0851804 8.7768595,16.1157025 C9.37355372,17.4396694 9.97190083,17.8512397 10.1239669,17.8512397 C10.2760331,17.8512397 10.8760331,17.4380165 11.4710744,16.1157025 C11.9112451,15.0851804 12.2151839,14.0016691 12.3752066,12.892562 L12.3752066,12.892562 L14.3818182,12.892562 C14.1421488,14.5917355 13.7024793,16.092562 13.1239669,17.261157 C14.7488612,16.591847 16.1073211,15.4047925 16.9884298,13.8842975 L16.9884298,13.8842975 L19.214876,13.8842975 C17.5616171,17.6780908 13.726411,20.0464724 9.59393707,19.8255829 C5.46146319,19.6046934 1.9005786,16.8409752 0.661157025,12.892562 L0.661157025,12.892562 Z M15.8677686,6.94214876 L19.8347107,9.91735537 L15.8677686,12.892562 L15.8677686,6.94214876 Z M12.892562,8.92561983 C13.4402824,8.92561983 13.8842975,9.36963496 13.8842975,9.91735537 C13.8842975,10.4650758 13.4402824,10.9090909 12.892562,10.9090909 C12.3448416,10.9090909 11.9008264,10.4650758 11.9008264,9.91735537 C11.9008264,9.36963496 12.3448416,8.92561983 12.892562,8.92561983 Z M8.92561983,8.92561983 C9.47334025,8.92561983 9.91735537,9.36963496 9.91735537,9.91735537 C9.91735537,10.4650758 9.47334025,10.9090909 8.92561983,10.9090909 C8.37789942,10.9090909 7.9338843,10.4650758 7.9338843,9.91735537 C7.9338843,9.36963496 8.37789942,8.92561983 8.92561983,8.92561983 Z M4.95867769,8.92561983 C5.5063981,8.92561983 5.95041322,9.36963496 5.95041322,9.91735537 C5.95041322,10.4650758 5.5063981,10.9090909 4.95867769,10.9090909 C4.41095727,10.9090909 3.96694215,10.4650758 3.96694215,9.91735537 C3.96694215,9.36963496 4.41095727,8.92561983 4.95867769,8.92561983 Z M0.991735537,8.92561983 C1.53945595,8.92561983 1.98347107,9.36963496 1.98347107,9.91735537 C1.98347107,10.4650758 1.53945595,10.9090909 0.991735537,10.9090909 C0.444015124,10.9090909 1.26217745e-29,10.4650758 1.26217745e-29,9.91735537 C1.26217745e-29,9.36963496 0.444015124,8.92561983 0.991735537,8.92561983 Z M9.59393707,0.0142246296 C13.726411,-0.206664843 17.5616171,2.16171672 19.214876,5.95551002 L19.214876,5.95551002 L16.9884298,5.95551002 C16.1073211,4.43501506 14.7488612,3.2479605 13.1239669,2.57865051 C13.7024793,3.74724555 14.1421488,5.24972489 14.3818182,6.94724555 L14.3818182,6.94724555 L12.3752066,6.94724555 C12.2151839,5.83813843 11.9112451,4.75462709 11.4710744,3.72410506 C10.8743802,2.40013812 10.2760331,1.98856787 10.1239669,1.98856787 C9.97190083,1.98856787 9.37190083,2.40179101 8.7768595,3.72410506 C8.33668883,4.75462709 8.03275001,5.83813843 7.87272727,6.94724555 L7.87272727,6.94724555 L5.8661157,6.94724555 C6.10578512,5.248072 6.54545455,3.74724555 7.12396694,2.57865051 C5.14569806,3.39221573 3.57706051,4.9662131 2.77024793,6.94724555 L2.77024793,6.94724555 L0.661157025,6.94724555 C1.9005786,2.99883237 5.46146319,0.235114102 9.59393707,0.0142246296 Z" id="path-1"></path>
    </defs>
    <g id="dark-/-Global" stroke="none" stroke-width="1" fill="none" fill-rule="evenodd">
        <g id="Global" transform="translate(2.000000, 2.000000)">
            <rect id="Rectangle-path" fill="#FFFFFF" fill-rule="nonzero" opacity="0" x="0" y="0" width="19.8347107" height="19.8347107"></rect>
            <mask id="mask-2" fill="white">
                <use xlink:href="#path-1"></use>
            </mask>
            <use id="Mask" fill="#222222" xlink:href="#path-1"></use>
        </g>
    </g>
</svg>