<?xml version="1.0" encoding="UTF-8"?>
<svg width="24px" height="24px" viewBox="0 0 24 24" version="1.1" xmlns="http://www.w3.org/2000/svg" xmlns:xlink="http://www.w3.org/1999/xlink">
    <!-- Generator: Sketch 59.1 (86144) - https://sketch.com -->
    <title>dark / Lorry</title>
    <desc>Created with Sketch.</desc>
    <defs>
        <path d="M20,9 L20,7 L14,7 L14,1 L0,1 L0,17 L2.175,17 C2.60160523,18.1936517 3.73240523,18.990359 5,18.990359 C6.26759477,18.990359 7.39839477,18.1936517 7.825,17 L12.175,17 C12.6016052,18.1936517 13.7324052,18.990359 15,18.990359 C16.2675948,18.990359 17.3983948,18.1936517 17.825,17 L20,17 L20,11 L18,11 L18,15 L17.825,15 C17.5624268,14.2488098 17.0107816,13.6335568 16.2925833,13.2908871 C15.574385,12.9482173 14.7490921,12.9064998 14,13.175 L14,9 L20,9 Z M5,17 C4.44771525,17 4,16.5522847 4,16 C4,15.4477153 4.44771525,15 5,15 C5.55228475,15 6,15.4477153 6,16 C6,16.5522847 5.55228475,17 5,17 Z M7.825,15 C7.39839477,13.8063483 6.26759477,13.009641 5,13.009641 C3.73240523,13.009641 2.60160523,13.8063483 2.175,15 L2,15 L2,3 L12,3 L12,15 L7.825,15 Z M15,15 C15.5522847,15 16,15.4477153 16,16 C16,16.5522847 15.5522847,17 15,17 C14.4477153,17 14,16.5522847 14,16 C14,15.4477153 14.4477153,15 15,15 Z" id="path-1"></path>
    </defs>
    <g id="dark-/-Lorry" stroke="none" stroke-width="1" fill="none" fill-rule="evenodd">
        <g id="Lorry" transform="translate(2.000000, 2.000000)">
            <rect id="Rectangle-path" fill="#FFFFFF" fill-rule="nonzero" opacity="0" x="0" y="0" width="20" height="20"></rect>
            <mask id="mask-2" fill="white">
                <use xlink:href="#path-1"></use>
            </mask>
            <use id="Mask" fill="#222222" xlink:href="#path-1"></use>
        </g>
    </g>
</svg>