<?xml version="1.0" encoding="UTF-8"?>
<svg width="24px" height="24px" viewBox="0 0 24 24" version="1.1" xmlns="http://www.w3.org/2000/svg" xmlns:xlink="http://www.w3.org/1999/xlink">
    <!-- Generator: Sketch 59.1 (86144) - https://sketch.com -->
    <title>dark / Magnifier</title>
    <desc>Created with Sketch.</desc>
    <defs>
        <path d="M6.34868982,0.399995766 C10.1237351,-0.76353075 14.2163687,0.670211559 16.4395116,3.93503931 C18.6626546,7.19986707 18.4965649,11.5325061 16.03,14.6176198 L16.03,14.6176198 L19.9999995,18.5852505 L18.585,20 L14.6166667,16.0307029 C11.9147511,18.188333 8.21535675,18.607419 5.09910749,17.1089 C1.98285822,15.6103809 0.000878478693,12.4592774 -4.59191798e-07,9.00194751 C-0.00125586544,5.05230028 2.57364458,1.56352228 6.34868982,0.399995766 Z M9,2.00318683 C5.13400675,2.00318683 2,5.13663872 2,9.00194751 C2,12.8672563 5.13400675,16.0007082 9,16.0007082 C12.8659932,16.0007082 16,12.8672563 16,9.00194751 C16,5.13663872 12.8659932,2.00318683 9,2.00318683 Z M6,5 C6.55228475,5 7,5.44771525 7,6 C7,6.55228475 6.55228475,7 6,7 C5.44771525,7 5,6.55228475 5,6 C5,5.44771525 5.44771525,5 6,5 Z" id="path-1"></path>
    </defs>
    <g id="dark-/-Magnifier" stroke="none" stroke-width="1" fill="none" fill-rule="evenodd">
        <g id="Magnifier" transform="translate(2.000000, 2.000000)">
            <rect id="Rectangle-path" fill="#FFFFFF" fill-rule="nonzero" opacity="0" transform="translate(10.000000, 10.000000) rotate(180.000000) translate(-10.000000, -10.000000) " x="-7.10542736e-15" y="0" width="20" height="20"></rect>
            <mask id="mask-2" fill="white">
                <use xlink:href="#path-1"></use>
            </mask>
            <use id="Mask" fill="#222222" xlink:href="#path-1"></use>
        </g>
    </g>
</svg>