<?xml version="1.0" encoding="UTF-8"?>
<svg width="24px" height="24px" viewBox="0 0 24 24" version="1.1" xmlns="http://www.w3.org/2000/svg" xmlns:xlink="http://www.w3.org/1999/xlink">
    <!-- Generator: Sketch 59.1 (86144) - https://sketch.com -->
    <title>dark / Mic</title>
    <desc>Created with Sketch.</desc>
    <defs>
        <path d="M10,14 C12.209139,14 14,12.209139 14,10 L14,4 C14,1.790861 12.209139,0 10,0 C7.790861,0 6,1.790861 6,4 L6,10 C6,12.209139 7.790861,14 10,14 Z M4,7 L4,16 L16,16 L16,7 L18,7 L18,18 L11,18 L11,20 L9,20 L9,18 L2,18 L2,7 L4,7 Z M10,2 C11.1045695,2 12,2.8954305 12,4 L12,10 C12,11.1045695 11.1045695,12 10,12 C8.8954305,12 8,11.1045695 8,10 L8,4 C8,2.8954305 8.8954305,2 10,2 Z" id="path-1"></path>
    </defs>
    <g id="dark-/-Mic" stroke="none" stroke-width="1" fill="none" fill-rule="evenodd">
        <g id="Mic" transform="translate(2.000000, 2.000000)">
            <rect id="Rectangle-path" fill="#FFFFFF" fill-rule="nonzero" opacity="0" x="0" y="0" width="20" height="20"></rect>
            <mask id="mask-2" fill="white">
                <use xlink:href="#path-1"></use>
            </mask>
            <use id="Mask" fill="#222222" xlink:href="#path-1"></use>
        </g>
    </g>
</svg>