<?xml version="1.0" encoding="UTF-8"?>
<svg width="24px" height="24px" viewBox="0 0 24 24" version="1.1" xmlns="http://www.w3.org/2000/svg" xmlns:xlink="http://www.w3.org/1999/xlink">
    <!-- Generator: Sketch 59.1 (86144) - https://sketch.com -->
    <title>dark / Plane</title>
    <desc>Created with Sketch.</desc>
    <g id="dark-/-Plane" stroke="none" stroke-width="1" fill="none" fill-rule="evenodd">
        <g id="Plane" transform="translate(2.000000, 2.000000)">
            <rect id="Rectangle-path" fill="#FFFFFF" fill-rule="nonzero" opacity="0" x="0" y="0" width="20" height="20"></rect>
            <path d="M16.9994112,0 C17.7952029,0 18.5583866,0.31619406 19.1210044,0.878995592 C19.6838059,1.44161338 20,2.20479714 20,3.00058878 C20,3.79638042 19.6838059,4.55956418 19.1210044,5.12218196 L19.1210044,5.12218196 L16.177773,8.06541336 L17.9993766,18.0000693 L15.9994459,20 L11.1212815,13.1219049 L8.01805563,16.2151311 L8.4047089,18.6667128 L6.99975756,20 L1.42108547e-14,13.0002424 L1.33328715,11.5952911 L3.78486891,11.9819444 L6.87809511,8.87871852 L1.42108547e-14,4.00055414 L1.99993073,2.00062341 L11.9362533,3.82222699 L14.877818,0.878995592 C15.4404358,0.31619406 16.2036196,0 16.9994112,0 Z M17.0002445,2.00067009 C16.7348445,2.00067009 16.4803308,2.10617605 16.292769,2.29394658 L16.292769,2.29394658 L12.6078967,5.97881896 L4.02819382,4.40554012 L9.96465487,8.61706092 L4.48151145,14.1168704 L3.84486683,14.0168739 L5.98479272,16.1534666 L5.88479618,15.5184886 L11.3846057,10.0353451 L15.5944599,15.9718062 L14.021181,7.39210334 L17.7060534,3.7122308 C18.0976444,3.3168211 18.0976444,2.68435646 17.70772,2.29394658 C17.5201583,2.10617605 17.2656446,2.00067009 17.0002445,2.00067009 Z" id="Mask" fill="#222222"></path>
        </g>
    </g>
</svg>