<?xml version="1.0" encoding="UTF-8"?>
<svg width="24px" height="24px" viewBox="0 0 24 24" version="1.1" xmlns="http://www.w3.org/2000/svg" xmlns:xlink="http://www.w3.org/1999/xlink">
    <!-- Generator: Sketch 59.1 (86144) - https://sketch.com -->
    <title>dark / Share</title>
    <desc>Created with Sketch.</desc>
    <defs>
        <path d="M16,11.9950079 C14.8437171,11.9959265 13.7444189,12.4976758 12.9856037,13.3708626 L7.91327443,10.827616 C8.03176508,10.2752286 8.03176508,9.70396224 7.91327443,9.15157482 L12.9856037,6.61666673 C14.3058836,8.12959897 16.5439774,8.424629 18.2106601,7.30544421 C19.8773429,6.18625941 20.4531127,4.0017076 19.5548531,2.20538688 C18.6565936,0.409066153 16.5642904,-0.439113667 14.6701596,0.22522523 C12.7760287,0.889564127 11.6704673,2.85934854 12.0891145,4.82388635 L7.01678521,7.36713294 C5.92196688,6.10730023 4.16075334,5.65999846 2.59818212,6.24492432 C1.0356109,6.82985019 0,8.32410261 0,9.99376467 C0,11.6634267 1.0356109,13.1576792 2.59818212,13.742605 C4.16075334,14.3275309 5.92196688,13.8802291 7.01678521,12.6203964 L12.0891145,15.163643 C11.7361418,16.8220947 12.4656622,18.5231773 13.9100092,19.4095726 C15.3543563,20.2959678 17.2000557,20.1752967 18.5169048,19.1083755 C19.8337538,18.0414543 20.3359498,16.2598425 19.7703941,14.6614439 C19.2048383,13.0630452 17.6942763,11.9947684 16,11.9950079 L16,11.9950079 Z M16.0000071,1.98878828 C17.104358,1.98878828 17.9996113,2.88477889 17.9996113,3.990035 C17.9996113,5.09529112 17.104358,5.99127823 16.0000071,5.99127823 C14.8956562,5.99127823 14.0004029,5.09529112 14.0004029,3.990035 C14.0004029,3.94834244 14.0004029,3.90831757 14.0004029,3.86829271 C14.0647957,2.8108457 14.9414676,1.9868298 16.0000071,1.98878828 Z M4.00238188,11.9950114 C2.94384237,11.9969699 2.06717047,11.172954 2.00277769,10.115507 C2.00277769,10.0754821 2.00277769,10.0354572 2.00277769,9.99376467 C2.00277769,9.95207211 2.00277769,9.91371495 2.00277769,9.87202238 C2.0689698,8.78508855 2.99137982,7.95061517 4.07856993,7.99412281 C5.16576004,8.03763046 6.01865233,8.94314866 5.99791943,10.0319017 C5.97718653,11.1206547 5.09043891,11.992991 4.00238188,11.9950114 Z M16.0000071,17.9987411 C14.9414676,18.0006995 14.0647957,17.1766837 14.0004029,16.1192366 C14.0004029,16.0792118 14.0004029,16.0391869 14.0004029,15.9974943 C14.0004029,14.8922382 14.8956562,13.9962511 16.0000071,13.9962511 C17.104358,13.9962511 17.9996113,14.8922382 17.9996113,15.9974943 C17.9996113,17.1027505 17.104358,17.9987411 16.0000071,17.9987411 L16.0000071,17.9987411 Z" id="path-1"></path>
    </defs>
    <g id="dark-/-Share" stroke="none" stroke-width="1" fill="none" fill-rule="evenodd">
        <g id="Share" transform="translate(2.000000, 2.000000)">
            <rect id="Rectangle-path" fill="#FFFFFF" fill-rule="nonzero" opacity="0" x="0" y="0" width="20" height="20"></rect>
            <mask id="mask-2" fill="white">
                <use xlink:href="#path-1"></use>
            </mask>
            <use id="Mask" fill="#222222" xlink:href="#path-1"></use>
        </g>
    </g>
</svg>