<?xml version="1.0" encoding="UTF-8"?>
<svg width="24px" height="24px" viewBox="0 0 24 24" version="1.1" xmlns="http://www.w3.org/2000/svg" xmlns:xlink="http://www.w3.org/1999/xlink">
    <!-- Generator: Sketch 59.1 (86144) - https://sketch.com -->
    <title>dark / Sock</title>
    <desc>Created with Sketch.</desc>
    <defs>
        <path d="M15,10 L10,10 L10,0 L0,0 L0,15 C0,17.7614237 2.23857625,20 5,20 L15,20 C17.7614237,20 20,17.7614237 20,15 C20,12.2385763 17.7614237,10 15,10 Z M2,2 L8,2 L8,4 L2,4 L2,2 Z M15,18 L5,18 C3.34314575,18 2,16.6568542 2,15 L2,6 L8,6 L8,12 L15,12 C16.6568542,12 18,13.3431458 18,15 C18,16.6568542 16.6568542,18 15,18 Z" id="path-1"></path>
    </defs>
    <g id="dark-/-Sock" stroke="none" stroke-width="1" fill="none" fill-rule="evenodd">
        <g id="Sock" transform="translate(2.000000, 2.000000)">
            <rect id="Rectangle-path" fill="#FFFFFF" fill-rule="nonzero" opacity="0" x="0" y="0" width="20" height="20"></rect>
            <mask id="mask-2" fill="white">
                <use xlink:href="#path-1"></use>
            </mask>
            <use id="Mask" fill="#222222" xlink:href="#path-1"></use>
        </g>
    </g>
</svg>