<?xml version="1.0" encoding="UTF-8"?>
<svg width="24px" height="24px" viewBox="0 0 24 24" version="1.1" xmlns="http://www.w3.org/2000/svg" xmlns:xlink="http://www.w3.org/1999/xlink">
    <!-- Generator: Sketch 59.1 (86144) - https://sketch.com -->
    <title>dark / Styles</title>
    <desc>Created with Sketch.</desc>
    <defs>
        <path d="M18,0 L18,20 L2,20 L2,0 L18,0 Z M16,2 L4,2 L4,18 L16,18 L16,2 Z M14,14 L14,16 L6,16 L6,14 L14,14 Z M11.1033333,4 L13.8633333,12 L11.8633333,12 L11.4483333,10.6533333 L8.55166667,10.6533333 L8.13166667,12 L6.13166667,12 L8.89666667,4 L11.1033333,4 Z M10,5.93333333 L9.01833333,9.13333333 L10.9716667,9.13333333 L10,5.93333333 Z" id="path-1"></path>
    </defs>
    <g id="dark-/-Styles" stroke="none" stroke-width="1" fill="none" fill-rule="evenodd">
        <g id="Styles" transform="translate(2.000000, 2.000000)">
            <rect id="Rectangle-path" fill="#FFFFFF" fill-rule="nonzero" opacity="0" x="0" y="0" width="20" height="20"></rect>
            <mask id="mask-2" fill="white">
                <use xlink:href="#path-1"></use>
            </mask>
            <use id="Mask" fill="#222222" xlink:href="#path-1"></use>
        </g>
    </g>
</svg>