<?xml version="1.0" encoding="UTF-8"?>
<svg width="24px" height="24px" viewBox="0 0 24 24" version="1.1" xmlns="http://www.w3.org/2000/svg" xmlns:xlink="http://www.w3.org/1999/xlink">
    <!-- Generator: Sketch 59.1 (86144) - https://sketch.com -->
    <title>dark / Toolbox</title>
    <desc>Created with Sketch.</desc>
    <defs>
        <path d="M14,4 L14,0 L6,0 L6,4 L0,4 L0,20 L20,20 L20,4 L14,4 Z M8,2 L12,2 L12,4 L8,4 L8,2 Z M18,18 L2,18 L2,10 L4,10 L4,12 L6,12 L6,10 L14,10 L14,12 L16,12 L16,10 L18,10 L18,18 Z M2,8 L2,6 L18,6 L18,8 L2,8 Z" id="path-1"></path>
    </defs>
    <g id="dark-/-Toolbox" stroke="none" stroke-width="1" fill="none" fill-rule="evenodd">
        <g id="Toolbox" transform="translate(2.000000, 2.000000)">
            <rect id="Rectangle-path" fill="#CCCCCC" fill-rule="nonzero" opacity="0" x="0" y="0" width="20" height="20"></rect>
            <mask id="mask-2" fill="white">
                <use xlink:href="#path-1"></use>
            </mask>
            <use id="Mask" fill="#222222" xlink:href="#path-1"></use>
        </g>
    </g>
</svg>