<?xml version="1.0" encoding="UTF-8"?>
<svg width="24px" height="24px" viewBox="0 0 24 24" version="1.1" xmlns="http://www.w3.org/2000/svg" xmlns:xlink="http://www.w3.org/1999/xlink">
    <!-- Generator: Sketch 59.1 (86144) - https://sketch.com -->
    <title>old / dark / Bag</title>
    <desc>Created with Sketch.</desc>
    <g id="old-/-dark-/-Bag" stroke="none" stroke-width="1" fill="none" fill-rule="evenodd">
        <path d="M10.3121885,7.13763492 C10.3121885,6.52658529 10.5575801,5.97244715 10.9537545,5.57107142 C11.3499289,5.16969569 11.8968861,4.92108236 12.5000173,4.92108236 C13.1038876,4.92108236 13.6508447,5.16969569 14.0470191,5.57107142 C14.4431935,5.97244715 14.6885851,6.52658529 14.6885851,7.13763492 L14.6885851,8.2459112 L14.6885851,9.35493631 L12.5000173,9.35493631 L10.3121885,9.35493631 L10.3121885,8.2459112 L10.3121885,7.13763492 Z M20.5454348,9.35490265 L15.5976957,9.35490265 L15.5976957,7.13760902 C15.5976957,6.70478372 15.5104783,6.29292573 15.3537826,5.91776055 C15.197087,5.54184653 14.9701739,5.20412298 14.6893043,4.92031539 C14.4091739,4.63575896 14.075087,4.40586732 13.7047826,4.24711479 C13.3344783,4.08761343 12.9272174,4 12.5,4 C12.0735217,4 11.6662609,4.08761343 11.2959565,4.24711479 C10.9256522,4.40586732 10.5915652,4.63575896 10.3114348,4.92031539 C10.0305652,5.20412298 9.80365217,5.54184653 9.64695652,5.91776055 C9.49026087,6.29292573 9.40304348,6.70478372 9.40304348,7.13760902 L9.40304348,9.35490265 L4.45456522,9.35490265 C4.39173913,9.35490265 4.3326087,9.36763281 4.27791304,9.39084662 C4.22395652,9.41406044 4.17443478,9.44775791 4.13378261,9.48969254 C4.0923913,9.53087834 4.05913043,9.5803013 4.03621739,9.63571491 C4.01330435,9.69112853 4,9.75178398 4,9.81543476 L4,19.9501366 C4,20.0130385 4.01330435,20.0736939 4.03621739,20.1291076 C4.05913043,20.1845212 4.0923913,20.2339441 4.13378261,20.2751299 C4.17443478,20.3170646 4.22395652,20.350762 4.27791304,20.3739759 C4.3326087,20.3971897 4.39173913,20.4106687 4.45456522,20.4106687 L8.47765217,21 L16.523087,21 L20.5454348,20.4106687 C20.6082609,20.4106687 20.6681304,20.3971897 20.7228261,20.3739759 C20.7767826,20.350762 20.8263043,20.3170646 20.8669565,20.2751299 C20.9083478,20.2339441 20.9416087,20.1845212 20.9645217,20.1291076 C20.9874348,20.0736939 21,20.0130385 21,19.9501366 L21,9.81543476 C21,9.75178398 20.9874348,9.69112853 20.9645217,9.63571491 C20.9416087,9.5803013 20.9083478,9.53087834 20.8669565,9.48969254 C20.8263043,9.44775791 20.7767826,9.41406044 20.7228261,9.39084662 C20.6681304,9.36763281 20.6082609,9.35490265 20.5454348,9.35490265 L20.5454348,9.35490265 Z" id="icn_bag" fill="#222222" fill-rule="nonzero"></path>
    </g>
</svg>