<?xml version="1.0" encoding="UTF-8"?>
<svg width="24px" height="24px" viewBox="0 0 24 24" version="1.1" xmlns="http://www.w3.org/2000/svg" xmlns:xlink="http://www.w3.org/1999/xlink">
    <!-- Generator: Sketch 59.1 (86144) - https://sketch.com -->
    <title>old / dark / CrossSmall</title>
    <desc>Created with Sketch.</desc>
    <g id="old-/-dark-/-CrossSmall" stroke="none" stroke-width="1" fill="none" fill-rule="evenodd">
        <path d="M11.9757962,5 C12.5280809,5 12.9757962,5.44771525 12.9757962,6 L12.975,10.831 L17.8069633,10.8311671 C18.359248,10.8311671 18.8069633,11.2788823 18.8069633,11.8311671 L18.8069633,11.9757962 C18.8069633,12.5280809 18.359248,12.9757962 17.8069633,12.9757962 L12.975,12.975 L12.9757962,17.8069633 C12.9757962,18.359248 12.5280809,18.8069633 11.9757962,18.8069633 L11.8311671,18.8069633 C11.2788823,18.8069633 10.8311671,18.359248 10.8311671,17.8069633 L10.831,12.975 L6,12.9757962 C5.44771525,12.9757962 5,12.5280809 5,11.9757962 L5,11.8311671 C5,11.2788823 5.44771525,10.8311671 6,10.8311671 L10.831,10.831 L10.8311671,6 C10.8311671,5.44771525 11.2788823,5 11.8311671,5 L11.9757962,5 Z" id="Combined-Shape" fill="#222222" fill-rule="nonzero" transform="translate(11.903482, 11.903482) rotate(45.000000) translate(-11.903482, -11.903482) "></path>
    </g>
</svg>