<?xml version="1.0" encoding="UTF-8"?>
<svg width="24px" height="24px" viewBox="0 0 24 24" version="1.1" xmlns="http://www.w3.org/2000/svg" xmlns:xlink="http://www.w3.org/1999/xlink">
    <!-- Generator: Sketch 59.1 (86144) - https://sketch.com -->
    <title>old / dark / Menu</title>
    <desc>Created with Sketch.</desc>
    <g id="old-/-dark-/-Menu" stroke="none" stroke-width="1" fill="none" fill-rule="evenodd">
        <path d="M20,16 L20,18 L8,18 L8,16 L20,16 Z M6,16 L6,18 L4,18 L4,16 L6,16 Z M16,11 L16,13 L8,13 L8,11 L16,11 Z M6,11 L6,13 L4,13 L4,11 L6,11 Z M18,6 L18,8 L8,8 L8,6 L18,6 Z M6,6 L6,8 L4,8 L4,6 L6,6 Z" id="Combined-Shape" fill="#222222" fill-rule="nonzero"></path>
    </g>
</svg>