<?xml version="1.0" encoding="UTF-8"?>
<svg width="24px" height="24px" viewBox="0 0 24 24" version="1.1" xmlns="http://www.w3.org/2000/svg" xmlns:xlink="http://www.w3.org/1999/xlink">
    <!-- Generator: Sketch 59.1 (86144) - https://sketch.com -->
    <title>old / dark / Microphone</title>
    <desc>Created with Sketch.</desc>
    <g id="old-/-dark-/-Microphone" stroke="none" stroke-width="1" fill="none" fill-rule="evenodd">
        <path d="M16.2187,10.3245 C16.5587,10.3325 16.8327,10.6135 16.8327,10.9495 L16.8327,10.9495 L16.8327,13.6745 C16.8327,15.3575 14.5797,17.9075 12.5307,17.9075 L12.5307,17.9075 L12.5307,19.5925 L14.5637,19.5925 C14.9117,19.5925 15.1947,19.8735 15.1947,20.2255 C15.1947,20.5745 14.9127,20.8575 14.5657,20.8575 L14.5657,20.8575 L9.2677,20.8575 C8.9207,20.8575 8.6387,20.5765 8.6387,20.2255 C8.6387,19.8755 8.9237,19.5925 9.2697,19.5925 L9.2697,19.5925 L11.3017,19.5925 L11.3017,17.9075 C9.2537,17.9075 6.9997,15.3575 6.9997,13.6745 L6.9997,13.6745 L6.9997,10.9575 C6.9997,10.6115 7.2777,10.3325 7.6147,10.3245 C7.9547,10.3325 8.2287,10.6125 8.2287,10.9515 L8.2287,10.9515 L8.2287,13.6745 C8.2287,14.9385 9.8677,16.6235 11.9167,16.6235 C13.9647,16.6235 15.6047,14.9385 15.6047,13.6745 L15.6047,13.6745 L15.6047,10.9515 C15.6047,10.6095 15.8817,10.3325 16.2187,10.3245 Z M11.9165,4.0006 C13.5005,4.0006 14.7855,5.2856 14.7855,6.8716 L14.7855,6.8716 L14.7855,12.9286 C14.7855,14.5146 13.4975,15.7996 11.9165,15.7996 C10.3325,15.7996 9.0485,14.5146 9.0485,12.9286 L9.0485,12.9286 L9.0485,6.8716 C9.0485,5.2856 10.3355,4.0006 11.9165,4.0006 Z" id="Combined-Shape" fill="#222222" fill-rule="nonzero"></path>
    </g>
</svg>