<?xml version="1.0" encoding="UTF-8"?>
<svg width="24px" height="24px" viewBox="0 0 24 24" version="1.1" xmlns="http://www.w3.org/2000/svg" xmlns:xlink="http://www.w3.org/1999/xlink">
    <!-- Generator: Sketch 59.1 (86144) - https://sketch.com -->
    <title>old / dark / Shop</title>
    <desc>Created with Sketch.</desc>
    <g id="old-/-dark-/-Shop" stroke="none" stroke-width="1" fill="none" fill-rule="evenodd">
        <path d="M21.806,18.002 L2.2,18.002 C2.2,18.002 2.198,17.84 2.198,17.64 C2.198,17.493 2.288,17.38 2.41,17.31 L12,12.027 L21.59,17.311 C21.7191425,17.3695197 21.8020722,17.4982173 21.802,17.64 C21.802,17.84 21.807,18.002 21.807,18.002 L21.806,18.002 Z M23.999997,17.662 C24.0012911,16.7684548 23.4927473,15.9524555 22.69,15.56 L12.997,10.223 C13.057,9.913 13.317,9.659 13.511,9.503 C13.949,9.119 14.525,8.575 14.673,7.434 C14.688,7.312 14.697,7.187 14.697,7.061 C14.697,5.37 13.341,4 11.668,4 C9.995,4 8.638,5.37 8.638,7.06 L10.62,7.06 C10.62,6.476 11.089,6.002 11.668,6.002 C12.247,6.002 12.716,6.476 12.716,7.061 C12.716,7.428 12.531,7.75 12.251,7.94 L12.251,7.944 C11.5162835,8.47573372 11.0615546,9.31130265 11.014,10.217 L1.31,15.56 C0.507094667,15.9527983 -0.00143467142,16.7691625 -3.02769932e-06,17.663 L-3.02769932e-06,20 L23.999997,20 L23.999997,17.663 L23.999997,17.662 Z" id="Shape" fill="#222222" fill-rule="nonzero"></path>
    </g>
</svg>